<?xml version="1.0" encoding="UTF-8" standalone="no"?>
<svg xmlns="http://www.w3.org/2000/svg" width="491" height="145" viewBox="0 0 491 145">
  <path d="M 274.250 58.625 L 273.625 58.750 L 273.375 58.875 L 273.125 59.000 L 272.750 59.375 L 272.625 59.625 L 272.625 60.000 L 272.750 60.375 L 273.250 60.875 L 273.625 61.000 L 275.250 61.000 L 276.375 61.125 L 277.125 61.250 L 278.250 61.625 L 278.875 61.875 L 279.125 62.000 L 280.000 62.875 L 280.500 63.500 L 280.875 64.250 L 281.000 64.625 L 281.125 65.125 L 281.500 66.875 L 281.625 67.500 L 281.750 70.875 L 281.750 115.375 L 281.625 120.625 L 281.375 122.375 L 281.375 125.875 L 281.250 128.500 L 281.125 130.125 L 281.000 131.875 L 280.875 132.625 L 280.750 133.250 L 280.375 134.375 L 280.125 135.000 L 280.000 135.375 L 279.250 136.125 L 278.500 136.500 L 278.125 136.625 L 277.625 136.750 L 276.750 136.875 L 275.125 136.875 L 273.750 137.000 L 273.375 137.125 L 273.125 137.250 L 272.750 137.625 L 272.625 138.000 L 272.625 138.500 L 272.750 138.750 L 273.375 139.375 L 273.625 139.500 L 274.750 139.625 L 280.375 139.500 L 283.125 139.375 L 284.500 139.125 L 293.875 139.125 L 295.375 139.375 L 297.750 139.500 L 305.750 139.500 L 306.250 139.375 L 306.500 139.250 L 307.000 138.750 L 307.125 138.500 L 307.125 137.875 L 307.000 137.625 L 306.625 137.250 L 306.375 137.125 L 304.875 137.000 L 303.250 137.000 L 301.750 136.875 L 300.875 136.750 L 300.375 136.625 L 299.750 136.500 L 298.750 136.125 L 298.500 136.000 L 297.625 135.125 L 297.250 134.625 L 297.125 134.375 L 297.000 134.125 L 296.750 133.250 L 296.750 132.750 L 296.250 131.375 L 296.125 130.375 L 296.000 128.500 L 295.875 124.750 L 295.750 119.125 L 295.625 109.250 L 295.625 74.250 L 295.750 70.125 L 295.875 67.750 L 296.000 66.375 L 296.125 65.500 L 296.250 65.000 L 296.375 64.625 L 296.750 63.750 L 296.875 63.500 L 297.125 63.125 L 298.250 62.000 L 298.500 61.875 L 298.750 61.750 L 300.375 61.250 L 301.125 61.125 L 302.375 61.125 L 303.750 61.000 L 304.125 60.875 L 304.375 60.750 L 304.500 60.625 L 304.625 60.375 L 304.625 59.500 L 304.500 59.250 L 304.250 59.000 L 304.000 58.875 L 303.375 58.625 L 299.500 58.625 L 296.500 58.875 L 292.750 59.000 L 285.250 59.000 L 281.625 58.875 L 278.500 58.625 Z M 183.750 58.625 L 183.375 58.750 L 183.000 58.875 L 182.500 59.125 L 182.250 59.500 L 182.250 60.125 L 182.375 60.375 L 182.750 60.750 L 183.000 60.875 L 183.500 61.000 L 185.000 61.000 L 186.250 61.125 L 186.750 61.250 L 187.125 61.375 L 188.875 62.000 L 189.125 62.125 L 190.125 62.750 L 190.500 63.000 L 191.250 63.625 L 192.125 64.500 L 192.500 65.000 L 192.875 65.500 L 193.000 65.750 L 193.000 66.000 L 193.125 66.250 L 193.625 66.875 L 194.000 67.625 L 194.000 68.000 L 194.375 68.875 L 194.500 69.125 L 194.750 69.375 L 194.875 69.625 L 195.125 70.625 L 195.375 71.250 L 195.750 71.750 L 195.875 72.000 L 196.125 72.625 L 196.125 73.000 L 196.750 74.125 L 197.000 74.750 L 197.000 75.125 L 197.250 75.625 L 197.875 76.625 L 198.000 77.375 L 198.125 77.750 L 198.875 79.125 L 199.000 79.500 L 199.125 80.250 L 199.250 80.500 L 200.000 81.750 L 200.000 82.125 L 200.375 83.125 L 200.750 83.625 L 200.875 83.875 L 201.125 84.875 L 201.250 85.250 L 202.000 86.500 L 202.125 87.125 L 202.625 88.000 L 202.875 88.625 L 203.125 89.625 L 203.875 91.000 L 204.000 91.750 L 204.125 92.125 L 204.250 92.375 L 204.500 92.625 L 204.875 93.500 L 205.000 94.125 L 206.000 96.000 L 206.250 97.000 L 206.875 98.125 L 207.125 99.125 L 207.250 99.375 L 207.625 99.875 L 207.750 100.125 L 208.000 100.750 L 208.000 101.125 L 208.250 101.625 L 208.875 102.750 L 209.000 103.500 L 209.125 103.875 L 209.875 105.250 L 210.125 106.250 L 210.875 107.625 L 211.250 108.875 L 211.875 110.000 L 212.125 111.000 L 212.875 112.375 L 213.125 113.375 L 213.250 113.625 L 213.375 113.875 L 213.625 114.125 L 213.750 114.375 L 213.875 114.625 L 214.125 115.625 L 214.750 116.625 L 214.875 117.000 L 215.000 117.375 L 215.125 118.125 L 215.250 118.375 L 215.625 118.875 L 215.875 119.375 L 216.125 120.375 L 216.375 120.875 L 216.875 121.625 L 217.000 122.000 L 217.125 122.625 L 217.375 123.250 L 217.625 123.500 L 217.750 123.750 L 218.125 125.125 L 218.625 126.000 L 219.000 127.250 L 219.875 128.875 L 220.000 129.625 L 220.125 130.000 L 220.250 130.250 L 220.375 130.500 L 220.625 130.750 L 220.750 131.000 L 220.875 131.250 L 221.125 132.250 L 221.625 133.250 L 222.875 135.750 L 223.125 136.750 L 223.250 137.000 L 223.375 137.250 L 223.625 137.500 L 223.750 137.750 L 223.875 138.000 L 224.000 138.625 L 224.125 138.875 L 224.375 139.250 L 224.875 139.750 L 225.125 140.250 L 225.500 140.625 L 225.750 140.750 L 226.000 140.875 L 226.375 141.000 L 227.000 141.000 L 227.375 140.875 L 228.375 139.875 L 228.750 139.375 L 229.125 138.500 L 229.500 138.125 L 229.750 137.625 L 230.500 136.250 L 230.625 136.000 L 230.625 135.625 L 230.875 135.250 L 230.875 134.875 L 231.125 134.375 L 231.875 133.000 L 232.125 132.000 L 232.250 131.750 L 232.375 131.500 L 232.625 131.250 L 232.750 131.000 L 233.000 130.375 L 233.125 129.750 L 233.250 129.500 L 233.500 129.250 L 233.625 129.000 L 233.875 128.375 L 233.875 128.000 L 234.000 127.625 L 234.750 126.375 L 234.875 125.750 L 235.125 125.125 L 235.250 124.875 L 235.625 124.375 L 235.750 124.125 L 235.875 123.375 L 236.000 123.000 L 236.750 121.625 L 237.000 120.625 L 237.125 120.375 L 237.875 119.125 L 237.875 118.750 L 238.125 118.250 L 238.375 117.625 L 238.625 117.375 L 238.750 117.125 L 238.875 116.500 L 239.125 115.875 L 239.250 115.625 L 239.500 115.375 L 239.625 115.125 L 239.750 114.875 L 240.000 113.875 L 240.125 113.625 L 240.500 113.125 L 240.625 112.875 L 240.875 111.875 L 241.000 111.625 L 241.125 111.375 L 241.500 110.875 L 241.750 110.375 L 241.875 109.750 L 242.250 108.875 L 242.375 108.625 L 242.625 108.375 L 242.750 108.125 L 243.125 106.750 L 243.250 106.500 L 243.500 106.250 L 243.625 106.000 L 243.750 105.750 L 243.875 105.375 L 244.000 104.625 L 244.125 104.375 L 244.875 103.125 L 244.875 102.750 L 245.125 102.250 L 245.250 102.000 L 245.750 101.250 L 245.875 100.875 L 246.125 99.875 L 246.250 99.625 L 246.625 99.125 L 246.750 98.875 L 247.000 97.875 L 247.625 96.875 L 247.875 96.250 L 248.000 95.625 L 249.750 92.125 L 249.875 91.500 L 250.125 91.000 L 250.625 90.250 L 250.750 89.875 L 251.000 88.875 L 251.125 88.625 L 251.500 88.125 L 251.750 87.625 L 252.000 86.750 L 252.500 85.875 L 253.125 84.125 L 253.750 83.000 L 254.125 81.750 L 254.625 81.125 L 254.875 80.500 L 255.000 79.875 L 255.750 78.500 L 256.000 77.625 L 256.750 76.250 L 256.875 75.625 L 257.250 74.750 L 257.875 73.750 L 258.125 72.750 L 258.250 72.500 L 258.500 72.250 L 258.625 72.000 L 258.750 71.750 L 259.000 70.750 L 259.875 69.125 L 260.000 68.500 L 260.750 67.375 L 260.875 67.125 L 260.875 66.875 L 261.000 66.625 L 262.125 64.750 L 262.750 64.125 L 262.875 63.750 L 263.250 63.375 L 263.250 63.250 L 263.500 63.000 L 264.125 62.500 L 264.625 62.125 L 264.875 62.000 L 265.625 61.750 L 266.625 61.375 L 267.000 61.250 L 267.500 61.125 L 268.250 61.000 L 269.500 61.000 L 270.250 60.875 L 270.500 60.750 L 270.625 60.625 L 270.750 60.375 L 270.750 59.375 L 270.625 59.125 L 270.250 58.875 L 269.875 58.750 L 269.250 58.625 L 268.125 58.625 L 264.875 58.750 L 261.750 59.000 L 256.750 59.000 L 252.375 58.875 L 248.625 58.625 L 246.625 58.625 L 245.625 58.750 L 245.375 58.875 L 245.125 59.000 L 244.750 59.375 L 244.750 60.250 L 244.875 60.500 L 245.125 60.750 L 245.375 60.875 L 245.750 61.000 L 247.250 61.000 L 248.500 61.125 L 249.375 61.250 L 249.875 61.375 L 250.250 61.500 L 250.875 61.750 L 251.125 61.875 L 251.375 62.125 L 251.500 62.125 L 251.625 62.250 L 251.625 62.375 L 251.875 62.625 L 252.000 62.875 L 252.125 63.125 L 252.250 63.625 L 252.250 64.250 L 252.000 65.500 L 251.875 66.000 L 251.750 66.375 L 251.125 67.500 L 250.750 68.875 L 250.125 70.000 L 250.000 70.375 L 249.875 71.125 L 249.625 71.625 L 249.125 72.500 L 248.875 73.500 L 248.125 74.875 L 248.000 75.625 L 247.875 76.000 L 247.750 76.250 L 247.500 76.500 L 247.375 76.750 L 246.875 78.375 L 246.125 79.750 L 245.875 80.750 L 245.750 81.250 L 245.375 81.750 L 245.250 82.000 L 245.000 82.625 L 245.000 83.000 L 244.875 83.375 L 244.125 84.625 L 243.875 85.625 L 243.250 86.750 L 242.875 88.125 L 242.125 89.500 L 241.750 90.875 L 241.125 92.000 L 241.000 92.375 L 240.875 93.125 L 240.750 93.375 L 240.625 93.625 L 240.375 93.875 L 240.250 94.125 L 240.125 94.375 L 240.000 94.750 L 240.000 95.125 L 239.875 95.500 L 239.125 96.875 L 238.875 97.875 L 238.750 98.250 L 238.375 98.750 L 238.250 99.000 L 238.000 100.000 L 237.250 101.500 L 237.125 101.875 L 237.125 102.250 L 236.875 102.875 L 236.750 103.125 L 236.625 103.375 L 236.375 103.625 L 236.250 103.875 L 236.000 104.500 L 236.000 104.875 L 235.875 105.250 L 235.750 105.500 L 235.375 106.000 L 235.125 106.500 L 234.875 107.500 L 234.000 109.125 L 233.875 109.750 L 233.750 110.125 L 233.375 110.625 L 233.250 110.875 L 233.000 111.875 L 232.375 113.000 L 232.000 113.875 L 231.875 114.500 L 231.625 115.000 L 231.250 115.500 L 231.125 115.750 L 231.125 116.125 L 230.750 117.125 L 230.625 117.375 L 230.375 117.750 L 229.750 118.375 L 229.375 118.375 L 229.000 118.000 L 228.875 117.750 L 228.750 117.375 L 228.750 117.000 L 228.625 116.625 L 228.250 116.000 L 228.000 115.375 L 227.875 115.000 L 227.875 114.625 L 227.750 114.250 L 227.000 112.875 L 227.000 112.500 L 226.750 111.875 L 226.250 111.000 L 226.000 110.375 L 225.875 110.000 L 225.875 109.625 L 225.750 109.250 L 225.625 108.875 L 225.000 107.750 L 224.875 107.375 L 224.875 107.000 L 224.750 106.625 L 224.375 105.750 L 224.000 105.250 L 223.875 104.875 L 223.625 103.875 L 223.500 103.500 L 223.250 103.250 L 223.125 103.000 L 223.000 102.625 L 222.875 102.250 L 222.875 101.875 L 222.750 101.500 L 222.000 100.125 L 221.875 99.375 L 221.750 99.000 L 221.625 98.750 L 221.500 98.500 L 221.250 98.250 L 221.125 98.000 L 220.750 96.625 L 220.375 95.750 L 220.000 95.250 L 219.875 94.875 L 219.750 94.125 L 219.625 93.750 L 219.000 92.625 L 218.750 91.625 L 218.000 90.250 L 217.750 89.000 L 217.250 88.125 L 217.000 87.500 L 216.750 86.500 L 216.000 85.125 L 216.000 84.625 L 215.875 84.250 L 215.750 83.875 L 215.625 83.625 L 215.250 83.125 L 215.000 82.375 L 214.750 81.500 L 214.500 80.875 L 214.000 80.000 L 213.875 79.625 L 213.750 78.875 L 213.625 78.500 L 213.250 78.000 L 212.875 77.125 L 212.750 76.375 L 212.625 76.000 L 212.000 74.875 L 211.875 74.000 L 211.750 73.625 L 211.000 72.250 L 210.875 71.500 L 210.750 71.125 L 210.125 70.000 L 209.875 68.750 L 209.250 67.250 L 209.125 66.750 L 209.000 66.250 L 208.875 65.625 L 208.750 64.375 L 208.750 63.750 L 208.875 63.250 L 209.000 63.000 L 209.125 62.750 L 209.875 62.000 L 210.625 61.625 L 211.625 61.250 L 212.500 61.125 L 213.500 61.125 L 214.625 61.000 L 215.250 60.875 L 215.625 60.625 L 215.750 60.375 L 215.875 60.125 L 215.875 59.500 L 215.750 59.250 L 215.500 59.000 L 215.250 58.875 L 214.875 58.750 L 214.375 58.625 L 210.875 58.625 L 208.125 58.875 L 204.500 59.000 L 196.000 59.000 L 191.750 58.875 L 187.625 58.625 Z M 149.000 58.625 L 148.375 58.750 L 147.875 58.875 L 147.500 59.000 L 147.250 59.250 L 147.125 59.500 L 147.125 59.875 L 147.250 60.250 L 147.625 60.625 L 147.875 60.750 L 148.125 60.875 L 148.625 61.000 L 150.250 61.000 L 151.500 61.125 L 152.250 61.250 L 152.625 61.375 L 153.250 61.625 L 154.250 62.125 L 154.750 62.625 L 155.125 63.125 L 155.500 63.625 L 155.875 64.375 L 156.000 64.750 L 156.125 65.500 L 156.250 66.375 L 156.375 67.750 L 156.500 69.250 L 156.625 72.000 L 156.625 114.875 L 156.500 120.750 L 156.375 124.125 L 156.125 126.375 L 156.125 128.625 L 156.000 130.250 L 155.875 131.500 L 155.750 132.625 L 155.625 133.375 L 155.500 133.750 L 155.375 134.125 L 155.000 135.000 L 154.875 135.250 L 154.625 135.625 L 154.375 135.875 L 154.000 136.125 L 153.375 136.500 L 153.000 136.625 L 152.500 136.750 L 151.375 136.875 L 149.500 136.875 L 148.500 137.000 L 148.250 137.125 L 147.625 137.750 L 147.500 138.000 L 147.500 138.500 L 147.625 138.750 L 148.000 139.125 L 148.375 139.375 L 148.625 139.500 L 154.625 139.500 L 157.250 139.375 L 158.500 139.125 L 162.250 139.125 L 162.375 139.000 L 166.000 139.000 L 169.250 139.125 L 170.625 139.375 L 172.750 139.500 L 180.250 139.500 L 181.000 139.250 L 181.375 139.125 L 181.750 138.750 L 181.875 138.500 L 181.875 137.875 L 181.625 137.375 L 181.250 137.125 L 180.375 137.000 L 178.375 137.000 L 177.000 136.875 L 176.125 136.750 L 175.500 136.625 L 175.000 136.500 L 174.500 136.375 L 174.125 136.250 L 173.750 136.125 L 173.500 136.000 L 173.250 135.875 L 172.750 135.375 L 172.250 134.750 L 172.000 134.375 L 171.875 134.125 L 171.750 133.750 L 171.250 131.750 L 171.125 131.125 L 171.000 130.125 L 170.875 128.750 L 170.750 126.625 L 170.625 122.750 L 170.500 116.875 L 170.500 72.625 L 170.625 69.375 L 170.750 67.125 L 170.875 66.125 L 171.000 65.500 L 171.125 64.875 L 171.250 64.500 L 171.625 63.625 L 171.875 63.250 L 173.000 62.125 L 173.750 61.750 L 174.250 61.750 L 175.000 61.375 L 175.375 61.250 L 176.000 61.125 L 177.125 61.125 L 178.375 61.000 L 178.750 60.875 L 179.125 60.625 L 179.250 60.375 L 179.375 60.125 L 179.375 59.625 L 179.250 59.375 L 178.875 59.000 L 178.625 58.875 L 178.375 58.750 L 177.625 58.625 L 174.000 58.625 L 171.125 58.875 L 167.375 59.000 L 159.500 59.000 L 155.750 58.875 L 152.375 58.625 Z M 441.250 56.750 L 440.625 56.875 L 440.250 57.000 L 440.000 57.125 L 439.500 57.500 L 439.375 57.625 L 439.000 58.125 L 438.625 58.875 L 438.250 59.500 L 438.125 59.750 L 437.750 61.000 L 437.625 61.250 L 437.375 61.500 L 437.250 61.750 L 437.125 62.000 L 436.875 62.625 L 436.875 63.000 L 436.750 63.250 L 436.625 63.500 L 436.375 63.750 L 436.250 64.000 L 436.000 64.625 L 436.000 65.000 L 435.750 65.500 L 435.125 66.625 L 435.000 67.250 L 434.750 67.875 L 434.250 68.500 L 434.125 68.875 L 434.000 69.500 L 433.750 70.125 L 433.625 70.375 L 433.375 70.625 L 433.250 70.875 L 433.125 71.250 L 433.000 72.000 L 432.625 72.750 L 432.375 73.000 L 432.000 73.750 L 431.875 74.375 L 431.125 75.750 L 430.875 76.625 L 430.750 76.875 L 430.625 77.125 L 430.375 77.375 L 430.250 77.625 L 430.125 77.875 L 430.000 78.500 L 429.750 79.125 L 429.375 79.625 L 429.250 79.875 L 429.125 80.625 L 429.000 81.000 L 428.500 82.000 L 427.000 85.000 L 426.750 86.000 L 426.125 87.125 L 426.000 87.500 L 425.875 88.250 L 425.000 89.750 L 424.875 90.375 L 424.625 90.875 L 424.250 91.375 L 424.125 91.625 L 423.875 92.625 L 423.250 93.750 L 423.125 94.125 L 423.125 94.500 L 423.000 94.875 L 422.875 95.250 L 422.750 95.500 L 422.000 96.750 L 421.875 97.375 L 421.000 99.000 L 420.750 100.000 L 420.625 100.250 L 420.250 100.750 L 420.125 101.000 L 419.750 102.125 L 419.250 102.750 L 419.250 103.125 L 418.875 104.125 L 418.750 104.375 L 418.500 104.625 L 418.375 104.875 L 418.125 105.500 L 417.875 106.500 L 417.750 106.750 L 417.625 107.000 L 417.375 107.250 L 417.250 107.500 L 417.125 107.750 L 416.750 109.125 L 416.625 109.375 L 416.250 109.875 L 416.000 110.500 L 415.875 111.125 L 415.750 111.375 L 415.375 111.875 L 415.125 112.375 L 414.875 113.375 L 414.625 113.875 L 414.250 114.375 L 414.125 114.625 L 413.875 115.625 L 413.750 115.875 L 413.625 116.125 L 413.375 116.375 L 413.250 116.625 L 413.125 116.875 L 413.000 117.625 L 412.875 118.000 L 412.750 118.250 L 412.500 118.500 L 412.375 118.750 L 412.000 119.625 L 412.000 120.000 L 411.625 120.750 L 411.375 121.000 L 411.250 121.250 L 411.125 121.500 L 410.750 122.750 L 410.625 123.000 L 410.500 123.250 L 410.250 123.500 L 410.125 123.750 L 409.875 124.625 L 409.625 125.125 L 409.250 125.625 L 409.125 125.875 L 408.875 126.875 L 408.750 127.125 L 408.375 127.625 L 408.125 128.250 L 408.000 128.875 L 407.875 129.125 L 407.750 129.375 L 407.250 130.000 L 406.750 131.125 L 406.125 131.875 L 406.125 132.125 L 405.875 132.500 L 405.500 133.000 L 405.000 133.625 L 403.875 134.750 L 403.375 135.125 L 402.375 135.750 L 402.125 135.875 L 401.875 136.000 L 401.000 136.250 L 400.500 136.375 L 400.000 136.500 L 398.750 136.625 L 397.625 136.500 L 396.750 136.250 L 395.875 136.000 L 395.500 135.875 L 395.000 135.625 L 394.500 135.250 L 394.250 135.125 L 393.625 135.000 L 393.375 134.875 L 392.500 134.250 L 392.250 134.125 L 391.750 134.000 L 391.500 133.875 L 390.750 133.250 L 390.375 133.000 L 389.750 132.750 L 389.125 132.125 L 388.625 131.875 L 388.125 131.375 L 387.625 131.125 L 387.125 130.750 L 386.125 129.875 L 385.250 129.125 L 384.125 128.125 L 375.875 119.875 L 373.750 117.625 L 372.750 116.375 L 369.875 113.375 L 368.875 112.250 L 368.125 111.250 L 367.125 110.250 L 366.750 109.625 L 365.750 108.500 L 365.500 108.250 L 364.000 106.875 L 363.000 105.750 L 362.500 105.000 L 361.750 104.125 L 360.625 103.000 L 358.875 100.875 L 356.875 98.625 L 353.750 95.250 L 352.875 94.250 L 352.250 93.500 L 352.125 93.125 L 352.125 92.750 L 352.250 92.500 L 352.375 92.250 L 352.750 91.875 L 353.500 91.250 L 355.750 89.000 L 357.000 87.750 L 358.875 85.625 L 359.875 84.625 L 360.500 84.000 L 362.625 82.000 L 372.250 72.250 L 374.750 69.875 L 375.875 68.875 L 376.875 68.000 L 377.375 67.750 L 378.000 67.125 L 378.625 66.750 L 379.250 66.125 L 379.875 65.750 L 380.625 65.000 L 381.375 64.625 L 381.875 64.125 L 382.625 63.750 L 382.875 63.750 L 383.125 63.625 L 383.375 63.500 L 383.750 63.125 L 384.000 63.000 L 384.250 62.875 L 385.125 62.625 L 385.375 62.500 L 385.625 62.250 L 385.875 62.125 L 386.250 62.000 L 386.625 61.875 L 387.500 61.750 L 388.750 61.250 L 389.375 61.125 L 391.625 61.000 L 392.125 60.875 L 392.625 60.625 L 392.750 60.375 L 392.875 60.125 L 392.875 59.625 L 392.625 59.125 L 392.250 58.875 L 391.750 58.750 L 391.250 58.625 L 387.500 58.625 L 385.000 58.875 L 382.250 59.000 L 377.000 59.000 L 372.375 58.750 L 366.500 58.750 L 365.750 59.125 L 365.500 59.375 L 365.375 59.625 L 365.375 60.000 L 365.500 60.375 L 365.875 60.750 L 366.625 61.125 L 367.250 61.250 L 367.625 61.500 L 368.250 62.125 L 368.375 62.375 L 368.500 62.625 L 368.500 63.625 L 368.375 64.000 L 368.000 65.000 L 367.875 65.375 L 367.500 65.875 L 367.000 66.625 L 366.625 67.125 L 366.000 67.875 L 365.125 68.750 L 364.375 69.625 L 364.000 70.250 L 363.375 71.000 L 361.125 73.375 L 358.875 75.750 L 355.000 79.625 L 353.250 81.625 L 351.125 83.875 L 347.875 87.125 L 346.250 89.000 L 342.250 93.125 L 341.750 93.625 L 341.500 93.750 L 341.250 93.750 L 340.875 93.375 L 340.750 93.125 L 340.750 91.875 L 340.875 90.375 L 340.875 84.000 L 340.875 83.500 L 340.875 80.875 L 340.875 80.125 L 340.750 77.375 L 340.875 69.500 L 341.000 67.625 L 341.125 66.750 L 341.375 66.125 L 341.500 64.750 L 341.750 64.000 L 341.875 63.625 L 342.125 63.250 L 343.250 62.125 L 343.625 61.875 L 344.125 61.750 L 345.625 61.250 L 346.375 61.125 L 347.250 61.125 L 348.375 61.000 L 348.750 60.875 L 349.000 60.750 L 349.500 60.250 L 349.625 59.750 L 349.500 59.375 L 349.125 59.000 L 348.875 58.875 L 348.500 58.750 L 348.125 58.625 L 345.625 58.625 L 342.625 58.875 L 338.750 59.000 L 330.625 59.000 L 326.375 58.875 L 322.625 58.625 L 318.750 58.625 L 318.125 58.750 L 317.625 58.875 L 317.375 59.000 L 317.125 59.250 L 317.000 59.500 L 317.000 60.250 L 317.125 60.500 L 317.375 60.750 L 317.625 60.875 L 318.250 61.000 L 319.750 61.000 L 321.000 61.125 L 321.625 61.250 L 322.125 61.375 L 323.625 61.875 L 323.875 62.000 L 324.125 62.125 L 324.500 62.375 L 325.625 63.500 L 325.875 63.875 L 326.125 64.500 L 326.500 65.500 L 326.625 66.125 L 326.750 66.625 L 326.875 67.500 L 327.000 77.375 L 327.000 79.250 L 326.875 81.625 L 327.000 104.750 L 326.875 120.625 L 326.750 124.000 L 326.625 127.000 L 326.500 129.000 L 326.375 130.000 L 326.250 131.000 L 325.875 133.375 L 325.750 134.125 L 325.500 134.625 L 325.000 135.625 L 324.625 136.000 L 324.250 136.250 L 323.375 136.625 L 322.875 136.750 L 321.875 136.875 L 319.750 136.875 L 318.875 137.000 L 318.500 137.125 L 318.000 137.625 L 318.000 138.500 L 318.125 138.750 L 318.250 138.875 L 318.500 139.000 L 318.750 139.125 L 319.375 139.375 L 320.000 139.500 L 325.250 139.500 L 328.125 139.375 L 329.625 139.125 L 335.500 139.000 L 336.125 139.000 L 339.750 139.125 L 341.250 139.375 L 343.250 139.500 L 345.875 139.625 L 347.750 139.625 L 349.750 139.500 L 350.250 139.375 L 351.000 139.000 L 351.375 138.750 L 351.500 138.500 L 351.500 138.000 L 351.375 137.750 L 350.875 137.250 L 350.625 137.125 L 350.250 137.000 L 348.250 137.000 L 346.500 136.875 L 345.750 136.750 L 345.250 136.625 L 344.750 136.500 L 343.750 136.125 L 343.500 136.000 L 342.875 135.375 L 342.625 135.000 L 342.250 134.375 L 342.125 134.125 L 342.000 133.750 L 341.875 133.375 L 341.750 132.750 L 341.625 132.000 L 341.500 131.125 L 341.250 129.000 L 341.125 127.875 L 341.000 126.375 L 340.875 123.375 L 340.750 115.750 L 340.875 102.250 L 340.750 101.000 L 340.750 100.375 L 340.875 99.750 L 341.000 99.500 L 341.125 99.375 L 341.375 99.250 L 341.625 99.375 L 342.250 100.000 L 342.875 100.750 L 343.250 101.375 L 344.000 102.125 L 344.375 102.750 L 345.000 103.375 L 345.875 104.500 L 346.125 105.000 L 346.875 105.750 L 347.125 106.250 L 347.875 107.000 L 348.125 107.500 L 348.875 108.375 L 349.750 109.250 L 350.125 109.875 L 350.750 110.500 L 351.000 111.000 L 351.625 111.625 L 352.000 112.250 L 352.875 113.250 L 353.750 114.125 L 355.000 115.750 L 356.625 117.500 L 357.125 118.250 L 357.875 119.000 L 358.375 119.750 L 359.125 120.625 L 360.000 121.625 L 361.000 122.625 L 361.875 123.625 L 362.375 124.375 L 363.250 125.375 L 364.125 126.375 L 365.875 128.250 L 370.125 132.500 L 370.875 133.000 L 371.625 133.750 L 372.125 134.000 L 372.625 134.500 L 373.500 135.000 L 374.000 135.500 L 374.500 135.875 L 375.125 136.125 L 375.500 136.500 L 375.875 136.750 L 376.500 137.000 L 377.125 137.125 L 377.375 137.250 L 377.625 137.500 L 377.875 137.625 L 378.500 137.875 L 379.000 137.875 L 380.125 138.250 L 380.750 138.625 L 381.125 138.750 L 381.750 138.875 L 383.375 139.000 L 384.500 139.375 L 385.375 139.500 L 386.750 139.625 L 396.000 139.625 L 400.375 139.500 L 403.875 139.375 L 405.250 139.125 L 414.125 139.125 L 416.375 139.500 L 422.125 139.625 L 422.750 139.500 L 423.125 139.375 L 423.375 139.250 L 423.625 139.000 L 423.750 139.000 L 423.875 138.875 L 424.000 138.625 L 424.000 137.875 L 423.875 137.625 L 423.375 137.125 L 422.375 137.000 L 421.250 137.000 L 420.125 136.875 L 419.375 136.750 L 418.750 136.625 L 417.750 136.250 L 417.500 136.125 L 417.250 136.000 L 416.625 135.375 L 416.500 135.125 L 416.375 134.875 L 416.250 134.500 L 416.125 134.125 L 416.125 133.125 L 416.250 132.375 L 416.375 131.875 L 416.750 131.000 L 416.875 130.125 L 417.000 129.750 L 417.750 128.375 L 418.250 126.750 L 418.375 126.500 L 418.625 126.250 L 418.750 126.000 L 418.875 125.625 L 419.000 124.875 L 419.125 124.500 L 419.750 123.500 L 419.875 123.125 L 419.875 122.750 L 420.125 122.250 L 420.750 121.125 L 421.000 120.125 L 421.125 119.875 L 421.500 119.375 L 421.625 119.125 L 422.000 117.750 L 422.875 116.125 L 422.875 115.750 L 423.250 114.750 L 423.625 114.125 L 423.750 113.500 L 423.875 113.250 L 424.000 113.000 L 424.625 112.375 L 426.500 112.375 L 426.625 112.500 L 428.375 112.500 L 449.375 112.250 L 452.125 112.250 L 452.500 112.375 L 453.125 113.000 L 453.500 113.500 L 454.000 114.500 L 454.125 115.125 L 454.625 116.000 L 454.875 116.625 L 455.000 117.000 L 455.000 117.375 L 455.125 117.750 L 455.250 118.125 L 455.375 118.375 L 455.625 118.625 L 455.750 118.875 L 456.000 119.500 L 456.000 119.875 L 456.125 120.250 L 457.000 121.875 L 457.000 122.250 L 457.375 123.125 L 457.750 123.625 L 457.875 123.875 L 457.875 124.250 L 458.250 125.250 L 458.625 125.750 L 458.750 126.000 L 459.000 127.000 L 459.250 127.500 L 459.875 128.500 L 460.250 129.750 L 460.875 130.875 L 461.250 132.250 L 461.375 132.500 L 461.625 132.750 L 462.000 133.625 L 462.125 134.375 L 462.375 134.750 L 462.500 135.125 L 462.500 135.375 L 462.375 135.625 L 462.250 135.875 L 461.125 137.000 L 461.000 137.250 L 460.875 137.500 L 460.750 137.875 L 460.750 138.250 L 460.875 138.500 L 461.125 138.750 L 461.375 138.875 L 461.625 139.000 L 462.500 139.125 L 464.750 139.125 L 466.375 139.375 L 470.500 139.500 L 488.125 139.500 L 489.250 139.375 L 490.125 138.875 L 490.500 138.750 L 490.875 138.750 L 490.875 137.500 L 490.375 137.500 L 489.750 137.125 L 489.250 137.000 L 486.750 137.000 L 485.750 136.875 L 485.250 136.750 L 484.750 136.625 L 484.000 136.375 L 482.875 136.000 L 482.625 135.875 L 482.375 135.750 L 481.125 134.875 L 480.500 134.375 L 479.125 133.000 L 478.250 131.875 L 477.875 131.375 L 477.750 131.000 L 477.500 130.625 L 477.000 130.125 L 476.875 129.875 L 476.875 129.625 L 476.625 129.250 L 476.125 128.625 L 475.750 127.625 L 475.375 127.250 L 474.875 126.250 L 474.750 125.625 L 474.125 124.750 L 474.000 124.500 L 473.875 124.250 L 473.750 123.625 L 473.625 123.375 L 473.000 122.375 L 472.875 121.875 L 472.500 121.125 L 472.250 120.875 L 471.875 120.125 L 471.875 119.750 L 471.500 119.000 L 471.250 118.750 L 471.125 118.500 L 471.000 118.250 L 470.625 117.000 L 470.500 116.750 L 470.125 116.250 L 470.000 116.000 L 469.750 115.000 L 469.625 114.750 L 469.500 114.500 L 469.250 114.250 L 468.875 113.500 L 468.750 112.750 L 468.625 112.500 L 468.250 112.000 L 468.000 111.500 L 467.750 110.500 L 467.625 110.250 L 466.875 109.000 L 466.500 107.875 L 466.125 107.375 L 466.000 107.125 L 465.625 105.875 L 465.500 105.625 L 465.125 105.125 L 465.000 104.750 L 464.750 103.750 L 464.625 103.500 L 464.250 103.000 L 464.000 102.500 L 463.750 101.500 L 463.500 101.000 L 463.000 100.250 L 462.625 99.000 L 462.500 98.750 L 462.250 98.500 L 462.125 98.250 L 462.000 98.000 L 462.000 97.625 L 461.750 97.000 L 461.625 96.750 L 461.250 96.250 L 461.125 96.000 L 460.750 94.625 L 460.625 94.375 L 460.375 94.125 L 460.000 93.375 L 459.625 92.125 L 459.000 91.125 L 458.875 90.750 L 458.625 89.750 L 458.500 89.500 L 457.750 88.250 L 457.625 87.625 L 457.125 87.000 L 456.875 86.375 L 456.750 85.750 L 456.625 85.500 L 456.375 85.250 L 456.250 85.000 L 455.875 84.125 L 455.750 83.500 L 455.625 83.250 L 455.250 82.750 L 455.000 82.250 L 454.875 81.625 L 454.625 81.000 L 454.500 80.750 L 454.125 80.250 L 454.000 80.000 L 453.875 79.625 L 453.750 78.875 L 453.625 78.625 L 453.500 78.375 L 453.125 77.875 L 452.750 77.125 L 452.750 76.750 L 452.625 76.500 L 451.875 75.250 L 451.875 74.875 L 451.625 74.375 L 451.500 74.125 L 451.000 73.375 L 450.875 72.750 L 450.625 72.250 L 450.000 71.250 L 449.875 70.500 L 449.750 70.125 L 449.125 69.125 L 448.750 68.125 L 448.750 67.750 L 448.625 67.500 L 448.250 67.125 L 447.875 66.375 L 447.750 65.625 L 446.875 64.125 L 446.750 63.500 L 446.000 61.875 L 445.500 60.875 L 445.000 60.250 L 444.875 59.625 L 444.500 59.000 L 444.250 58.625 L 443.625 57.750 L 443.125 57.250 L 442.750 57.000 L 442.500 56.875 L 442.000 56.750 Z M 438.500 80.250 L 439.125 80.250 L 439.375 80.375 L 439.875 80.875 L 440.125 81.375 L 440.250 81.875 L 440.375 82.125 L 440.625 82.375 L 440.750 82.625 L 440.875 82.875 L 441.000 83.250 L 441.125 84.000 L 441.250 84.250 L 441.375 84.500 L 441.625 84.750 L 441.750 85.000 L 441.875 85.500 L 442.125 86.000 L 442.625 86.625 L 442.750 86.875 L 442.875 87.125 L 443.250 88.500 L 443.750 89.500 L 444.000 90.250 L 444.125 91.000 L 444.250 91.375 L 445.000 92.875 L 445.250 93.875 L 445.375 94.125 L 445.750 94.625 L 445.875 94.875 L 446.000 95.250 L 446.125 96.000 L 446.375 96.500 L 446.875 97.375 L 447.000 97.750 L 447.000 98.125 L 447.125 98.500 L 447.375 99.000 L 447.750 99.500 L 447.875 99.750 L 448.000 100.500 L 448.125 100.875 L 448.875 102.250 L 449.125 103.250 L 449.500 104.125 L 449.625 104.375 L 449.875 104.625 L 450.000 104.875 L 450.125 105.250 L 450.125 106.125 L 449.625 106.625 L 427.500 106.625 L 427.125 106.250 L 427.125 105.375 L 427.250 105.000 L 427.375 104.750 L 427.625 104.500 L 427.750 104.250 L 427.875 103.875 L 427.875 103.500 L 428.000 103.125 L 428.125 102.750 L 428.250 102.500 L 428.625 102.000 L 428.750 101.750 L 429.000 101.125 L 429.000 100.750 L 429.125 100.500 L 429.500 100.000 L 429.750 99.500 L 429.875 99.125 L 429.875 98.750 L 430.125 98.125 L 430.750 97.000 L 430.750 96.625 L 431.000 96.000 L 431.125 95.750 L 431.500 95.250 L 431.625 95.000 L 432.000 93.625 L 432.125 93.375 L 432.375 93.125 L 432.875 92.000 L 432.875 91.625 L 433.125 91.000 L 433.750 89.875 L 434.000 88.625 L 434.750 87.125 L 434.875 86.500 L 435.125 85.875 L 435.250 85.625 L 435.500 85.375 L 435.625 85.125 L 436.000 83.750 L 436.750 82.375 L 436.875 81.625 L 437.000 81.375 L 437.625 80.750 L 438.000 80.500 L 438.250 80.375 Z M 90.750 0.000 L 90.500 0.375 L 90.000 0.500 L 89.375 0.625 L 88.750 0.750 L 87.875 0.875 L 86.500 0.875 L 85.125 1.125 L 83.500 1.125 L 82.250 1.250 L 81.125 1.375 L 79.125 1.875 L 78.375 2.000 L 76.250 2.125 L 75.500 2.250 L 74.875 2.375 L 74.375 2.625 L 73.250 2.875 L 72.500 3.000 L 71.625 3.000 L 70.750 3.125 L 69.125 3.625 L 68.500 3.750 L 67.250 3.875 L 66.625 4.000 L 66.125 4.125 L 64.875 4.625 L 64.375 4.750 L 62.625 5.000 L 60.625 5.500 L 59.250 6.000 L 58.250 6.125 L 57.625 6.250 L 56.250 6.875 L 55.750 7.000 L 54.750 7.125 L 53.625 7.500 L 53.000 7.875 L 52.500 8.000 L 52.000 8.000 L 51.500 8.125 L 50.875 8.375 L 50.250 8.750 L 49.875 8.875 L 48.625 9.125 L 48.125 9.375 L 47.250 9.875 L 46.500 10.000 L 46.125 10.125 L 45.000 10.750 L 43.625 11.125 L 42.250 11.875 L 40.875 12.250 L 40.625 12.375 L 40.125 12.750 L 39.500 13.000 L 38.750 13.125 L 38.500 13.250 L 37.250 14.000 L 36.625 14.125 L 36.375 14.250 L 35.375 14.875 L 34.875 15.000 L 34.625 15.125 L 34.375 15.250 L 33.875 15.625 L 33.375 15.875 L 32.875 16.000 L 32.625 16.125 L 32.375 16.250 L 31.875 16.625 L 31.375 16.875 L 30.875 17.000 L 30.625 17.125 L 30.375 17.250 L 30.000 17.625 L 29.375 18.000 L 28.875 18.125 L 28.625 18.250 L 28.000 18.750 L 27.375 19.000 L 26.750 19.375 L 26.250 19.875 L 26.000 20.000 L 25.750 20.000 L 25.500 20.125 L 24.750 20.750 L 24.375 21.000 L 23.750 21.250 L 23.000 21.875 L 22.500 22.000 L 22.125 22.250 L 21.250 23.000 L 20.625 23.250 L 20.000 23.875 L 19.625 24.000 L 19.000 24.500 L 17.875 25.375 L 17.250 26.000 L 16.750 26.250 L 15.875 27.000 L 14.125 28.500 L 12.625 29.875 L 10.750 31.750 L 9.750 32.875 L 8.875 33.875 L 8.125 34.750 L 7.875 35.250 L 7.375 35.750 L 7.000 36.250 L 6.375 37.125 L 6.125 37.500 L 6.000 37.875 L 5.750 38.250 L 5.375 38.625 L 5.125 39.000 L 4.750 39.875 L 4.250 40.500 L 3.125 42.625 L 3.000 43.375 L 2.750 44.000 L 2.375 44.500 L 2.250 44.750 L 2.000 45.625 L 1.625 46.875 L 1.375 47.750 L 1.125 48.625 L 1.000 49.125 L 0.875 49.750 L 0.750 51.250 L 0.625 53.000 L 0.500 55.000 L 0.625 76.375 L 0.500 81.625 L 0.500 82.000 L 0.500 85.875 L 0.500 86.250 L 0.625 88.875 L 0.500 98.375 L 0.625 102.000 L 0.750 103.375 L 0.875 104.500 L 1.000 105.250 L 1.125 105.750 L 1.250 106.250 L 1.875 107.500 L 2.000 108.125 L 2.250 108.750 L 2.375 109.000 L 2.500 109.250 L 2.750 109.500 L 2.875 109.750 L 3.125 110.500 L 3.500 111.250 L 3.875 111.625 L 4.125 112.250 L 5.250 113.750 L 6.250 114.750 L 6.500 114.750 L 6.750 114.625 L 7.000 114.125 L 7.125 113.250 L 7.000 108.625 L 7.000 107.750 L 7.250 105.750 L 7.250 103.625 L 7.375 103.375 L 7.500 103.125 L 7.750 102.750 L 8.125 102.375 L 8.375 102.250 L 8.875 102.250 L 9.250 102.375 L 9.625 102.625 L 10.000 102.875 L 11.000 103.875 L 11.250 104.250 L 11.500 104.625 L 11.625 104.875 L 11.750 105.125 L 12.000 105.750 L 12.250 106.625 L 12.375 107.250 L 12.500 109.875 L 12.500 111.375 L 12.375 121.125 L 12.500 121.500 L 12.875 122.000 L 13.625 122.750 L 14.750 123.625 L 15.625 124.125 L 16.125 124.625 L 16.500 124.875 L 16.875 125.000 L 17.750 125.750 L 18.375 126.000 L 19.125 126.750 L 19.750 126.750 L 20.000 126.625 L 20.125 126.375 L 20.125 124.375 L 20.000 115.625 L 20.125 115.125 L 20.250 114.875 L 20.375 114.625 L 20.625 114.250 L 20.875 113.875 L 21.750 113.000 L 22.000 112.875 L 22.250 112.750 L 23.250 112.750 L 23.625 112.875 L 23.875 113.000 L 24.375 113.375 L 25.000 113.875 L 26.000 114.875 L 26.625 115.625 L 26.875 116.125 L 27.250 116.875 L 27.625 117.750 L 27.750 118.500 L 27.875 119.500 L 28.000 129.500 L 27.875 131.000 L 28.000 131.500 L 28.125 131.750 L 28.625 132.250 L 29.125 132.625 L 29.375 132.750 L 29.625 132.875 L 30.500 133.250 L 31.750 133.875 L 33.625 134.750 L 34.625 135.000 L 34.875 135.125 L 35.125 135.250 L 35.500 135.625 L 35.750 135.750 L 36.000 135.875 L 36.750 135.875 L 37.000 135.750 L 37.125 135.500 L 37.125 132.875 L 37.000 128.500 L 37.125 123.875 L 37.250 123.500 L 37.500 123.000 L 37.875 122.250 L 38.250 121.875 L 38.625 121.625 L 39.250 121.250 L 39.500 121.125 L 40.000 121.000 L 41.125 121.000 L 41.625 121.125 L 42.125 121.375 L 42.625 121.750 L 43.125 121.875 L 43.375 122.000 L 44.375 122.875 L 44.750 123.250 L 45.000 123.625 L 45.625 124.625 L 45.750 124.875 L 45.875 125.125 L 46.000 125.500 L 46.125 125.875 L 46.250 126.500 L 46.375 127.500 L 46.500 128.750 L 46.625 130.000 L 46.625 138.375 L 46.750 138.625 L 47.250 139.125 L 47.625 139.375 L 48.250 139.625 L 48.625 139.750 L 49.250 139.750 L 50.750 140.125 L 51.750 140.500 L 52.250 140.625 L 52.750 140.750 L 54.500 141.125 L 55.125 141.125 L 56.375 141.500 L 57.000 141.625 L 57.250 141.625 L 57.500 141.500 L 57.750 141.250 L 57.875 141.000 L 57.875 132.250 L 58.000 131.000 L 58.125 130.500 L 58.750 129.375 L 59.000 129.000 L 60.000 128.000 L 60.375 127.750 L 60.750 127.625 L 61.625 127.375 L 62.750 127.375 L 63.375 127.500 L 64.250 127.750 L 65.000 128.125 L 65.375 128.375 L 66.000 128.875 L 66.875 129.750 L 67.750 131.250 L 67.875 131.500 L 68.000 131.875 L 68.125 132.500 L 68.250 133.375 L 68.375 136.875 L 68.250 141.875 L 68.250 142.250 L 68.500 142.750 L 68.750 143.000 L 69.125 143.250 L 69.375 143.375 L 69.625 143.500 L 70.125 143.625 L 70.875 143.750 L 72.000 143.875 L 74.250 144.000 L 76.500 144.000 L 78.375 144.125 L 79.750 144.250 L 80.625 144.375 L 81.250 144.500 L 81.625 144.875 L 92.000 144.875 L 92.500 144.500 L 93.125 144.375 L 93.750 144.250 L 94.750 144.125 L 97.125 144.125 L 99.125 144.000 L 101.125 143.875 L 102.250 143.750 L 103.250 143.625 L 104.000 143.500 L 104.625 143.250 L 105.375 143.125 L 106.250 143.125 L 107.125 143.000 L 108.375 142.750 L 109.625 142.375 L 110.250 142.250 L 111.000 142.125 L 112.500 142.000 L 113.250 141.875 L 115.125 141.500 L 118.250 140.750 L 118.750 140.625 L 119.250 140.500 L 120.000 140.125 L 120.750 139.875 L 121.375 139.750 L 122.000 139.750 L 122.500 139.625 L 122.875 139.500 L 123.250 139.375 L 123.625 139.125 L 124.000 139.000 L 124.875 138.875 L 125.375 138.750 L 125.875 138.500 L 127.000 138.000 L 127.250 137.875 L 127.500 137.750 L 128.000 137.375 L 129.000 136.375 L 129.250 136.000 L 129.625 135.375 L 129.750 135.125 L 129.875 134.750 L 130.000 134.250 L 130.000 133.750 L 130.250 132.875 L 130.625 132.000 L 130.750 131.500 L 130.875 131.000 L 131.000 130.250 L 131.125 128.500 L 131.250 127.500 L 131.625 126.125 L 131.750 125.375 L 131.875 124.375 L 131.875 123.000 L 132.125 121.750 L 132.125 120.125 L 132.000 119.625 L 131.875 119.250 L 131.625 119.000 L 131.625 118.875 L 131.500 118.750 L 131.250 118.625 L 131.000 118.500 L 130.500 118.500 L 130.250 118.625 L 129.875 119.000 L 129.500 119.500 L 129.375 119.750 L 129.250 120.000 L 129.000 120.625 L 129.000 121.000 L 128.875 121.375 L 128.125 122.750 L 127.750 124.000 L 127.625 124.250 L 127.250 124.625 L 127.125 124.875 L 127.125 125.125 L 127.000 125.375 L 126.750 125.750 L 126.500 126.125 L 125.875 127.000 L 125.000 128.000 L 123.000 130.000 L 122.500 130.375 L 122.000 130.750 L 121.625 131.000 L 121.000 131.250 L 120.625 131.625 L 120.250 131.875 L 120.000 132.000 L 119.375 132.125 L 118.000 132.875 L 117.500 133.000 L 116.500 133.125 L 115.625 133.375 L 115.250 133.625 L 114.625 133.750 L 114.000 133.875 L 112.875 134.000 L 111.625 134.000 L 109.250 134.375 L 105.250 134.375 L 103.875 134.250 L 101.500 134.000 L 100.375 133.875 L 99.625 133.750 L 98.250 133.250 L 97.750 133.125 L 96.750 133.000 L 96.000 132.750 L 95.625 132.625 L 95.375 132.375 L 95.000 132.250 L 94.625 132.125 L 93.875 132.000 L 93.375 131.750 L 92.000 131.000 L 91.625 131.000 L 90.875 130.625 L 90.375 130.250 L 90.125 130.125 L 89.625 130.000 L 89.375 129.875 L 89.000 129.625 L 88.625 129.250 L 87.500 128.750 L 87.000 128.250 L 86.250 127.875 L 85.750 127.500 L 84.625 126.625 L 83.750 125.875 L 79.125 121.250 L 78.625 120.375 L 78.000 119.750 L 77.750 119.375 L 77.625 119.000 L 77.125 118.500 L 76.875 117.875 L 76.625 117.500 L 76.250 117.125 L 76.000 116.750 L 75.875 116.500 L 75.750 116.250 L 75.750 116.000 L 75.625 115.750 L 75.125 115.125 L 75.000 114.875 L 74.750 114.250 L 74.750 113.875 L 74.625 113.625 L 74.250 113.125 L 73.875 112.250 L 73.750 111.500 L 73.125 110.250 L 73.000 109.750 L 72.875 108.750 L 72.625 107.875 L 72.375 107.500 L 72.250 107.125 L 72.125 106.625 L 72.000 106.000 L 71.875 105.250 L 71.500 102.875 L 71.375 101.875 L 71.250 100.125 L 71.250 93.500 L 71.375 92.125 L 71.625 91.000 L 71.625 89.500 L 71.875 87.625 L 72.000 86.875 L 72.125 86.250 L 72.250 85.750 L 72.625 84.875 L 72.875 84.000 L 73.000 82.750 L 73.125 82.375 L 73.375 81.750 L 73.750 81.125 L 74.000 80.125 L 74.125 79.875 L 74.250 79.625 L 74.500 79.375 L 74.625 79.125 L 74.875 78.250 L 75.000 78.000 L 75.125 77.750 L 75.625 77.125 L 75.750 76.500 L 75.875 76.250 L 76.250 75.625 L 76.750 75.125 L 77.000 74.500 L 77.250 74.125 L 78.125 73.000 L 78.875 72.125 L 79.875 71.000 L 81.000 69.875 L 82.125 68.875 L 82.750 68.375 L 83.250 68.000 L 84.125 67.500 L 84.625 67.000 L 84.875 66.875 L 85.125 66.875 L 85.375 66.750 L 86.000 66.250 L 86.625 65.875 L 87.250 65.750 L 87.500 65.625 L 88.750 64.875 L 90.125 64.500 L 90.750 64.125 L 91.125 64.000 L 91.500 63.875 L 92.125 63.750 L 93.500 63.625 L 94.000 63.500 L 94.500 63.250 L 95.000 63.125 L 95.500 63.000 L 96.375 62.875 L 98.250 62.750 L 101.000 62.625 L 102.500 62.625 L 105.375 62.750 L 107.375 62.875 L 108.375 63.000 L 109.000 63.125 L 109.500 63.250 L 110.000 63.500 L 110.500 63.625 L 112.125 63.750 L 112.625 63.875 L 113.125 64.000 L 116.000 65.000 L 116.250 65.125 L 116.750 65.500 L 117.250 65.750 L 117.875 65.875 L 118.250 66.000 L 119.500 66.875 L 120.000 67.000 L 120.250 67.125 L 120.750 67.625 L 121.125 67.750 L 121.500 68.000 L 122.375 68.750 L 124.625 71.000 L 125.000 71.500 L 125.250 72.125 L 125.625 72.500 L 125.875 72.875 L 126.125 73.500 L 126.250 74.125 L 126.625 74.750 L 126.750 75.125 L 126.875 75.500 L 127.000 76.125 L 127.125 76.875 L 127.250 77.750 L 127.250 78.750 L 127.375 80.000 L 127.500 80.500 L 128.000 81.500 L 128.250 81.750 L 128.500 81.875 L 129.500 81.875 L 129.750 81.750 L 130.000 81.500 L 130.250 81.125 L 130.625 80.375 L 130.750 79.625 L 130.875 75.375 L 130.875 69.375 L 131.000 66.625 L 131.125 65.000 L 131.375 63.500 L 131.375 61.750 L 131.000 61.000 L 130.750 60.625 L 130.500 60.375 L 130.125 60.125 L 129.375 60.000 L 129.125 59.875 L 128.875 59.750 L 128.500 59.375 L 128.500 58.375 L 128.250 58.125 L 127.750 58.125 L 127.500 58.375 L 127.375 58.750 L 127.250 59.000 L 127.125 59.125 L 126.875 59.250 L 126.000 59.250 L 125.375 59.000 L 124.500 58.875 L 123.625 58.875 L 122.750 58.750 L 120.125 58.125 L 119.250 58.000 L 118.250 57.875 L 116.125 57.750 L 115.125 57.625 L 113.250 57.250 L 112.000 57.125 L 109.750 57.000 L 105.125 56.875 L 104.125 56.875 L 98.750 57.000 L 97.250 57.125 L 96.250 57.250 L 95.500 57.375 L 94.000 57.750 L 93.125 57.875 L 92.250 57.875 L 91.375 58.000 L 90.625 58.125 L 90.125 58.250 L 89.125 58.625 L 88.000 58.875 L 87.375 58.875 L 86.875 59.000 L 86.375 59.125 L 86.000 59.250 L 85.125 59.750 L 84.000 60.125 L 83.625 60.125 L 83.250 60.250 L 82.875 60.375 L 82.250 60.750 L 81.875 60.875 L 81.500 61.000 L 80.625 61.125 L 80.000 61.375 L 79.125 61.875 L 78.500 62.000 L 77.750 62.375 L 77.125 62.875 L 76.500 63.000 L 76.250 63.125 L 76.000 63.250 L 75.625 63.500 L 75.250 63.875 L 74.625 64.125 L 73.625 64.750 L 73.250 65.000 L 72.750 65.375 L 72.250 65.875 L 71.375 66.375 L 70.875 66.875 L 70.500 67.000 L 69.875 67.500 L 69.125 68.125 L 68.125 69.000 L 67.250 69.875 L 65.875 71.375 L 64.875 72.500 L 64.375 73.125 L 63.500 74.250 L 63.125 74.750 L 62.375 75.875 L 62.000 76.500 L 62.000 76.750 L 61.875 77.000 L 61.625 77.375 L 61.250 77.750 L 61.000 78.250 L 60.250 79.625 L 60.125 79.875 L 60.000 80.125 L 59.875 80.750 L 59.000 82.375 L 58.875 83.125 L 58.750 83.500 L 58.125 84.750 L 58.000 85.250 L 57.875 86.250 L 57.250 87.750 L 57.125 88.375 L 57.000 89.250 L 57.000 90.000 L 56.875 90.875 L 56.750 91.375 L 56.250 91.875 L 54.875 91.875 L 54.250 91.500 L 52.750 91.000 L 51.875 90.875 L 51.500 90.750 L 50.625 90.250 L 50.250 90.125 L 49.875 90.000 L 48.875 89.875 L 48.500 89.750 L 47.875 89.375 L 47.500 89.250 L 47.125 89.125 L 45.875 88.875 L 45.000 88.375 L 44.375 88.125 L 42.750 87.625 L 42.125 87.250 L 40.875 87.000 L 40.375 86.750 L 39.000 86.000 L 38.625 86.000 L 38.000 85.750 L 37.750 85.625 L 37.250 85.250 L 36.750 85.000 L 36.250 84.875 L 35.250 84.250 L 35.000 84.125 L 34.375 84.000 L 33.625 83.625 L 33.000 83.125 L 31.750 82.625 L 31.375 82.250 L 31.125 82.125 L 30.625 82.000 L 30.125 81.750 L 29.375 81.125 L 29.125 81.000 L 28.625 80.875 L 28.125 80.375 L 27.750 80.125 L 27.375 80.000 L 27.000 79.750 L 26.625 79.375 L 26.250 79.125 L 25.625 78.875 L 24.625 78.125 L 24.000 77.875 L 22.625 76.875 L 21.750 76.125 L 21.000 75.500 L 19.875 74.500 L 18.500 73.250 L 15.750 70.500 L 15.000 69.625 L 14.625 69.000 L 14.000 68.375 L 13.500 67.500 L 13.000 67.000 L 12.750 66.375 L 12.000 65.375 L 11.875 65.125 L 11.750 64.625 L 11.500 64.125 L 11.250 63.875 L 10.875 63.125 L 10.625 62.250 L 10.125 61.375 L 10.000 61.000 L 9.875 60.500 L 9.750 59.375 L 9.375 58.375 L 9.250 57.750 L 9.125 57.125 L 9.000 55.750 L 9.000 54.750 L 9.125 52.125 L 9.250 51.500 L 9.375 50.875 L 9.625 50.375 L 9.750 49.750 L 9.875 48.375 L 10.000 47.750 L 10.250 47.125 L 10.625 46.375 L 10.750 45.625 L 11.000 45.000 L 11.500 44.375 L 11.625 44.125 L 11.750 43.875 L 12.000 43.000 L 12.125 42.750 L 12.625 42.125 L 13.000 41.250 L 13.750 40.375 L 13.875 40.000 L 14.125 39.625 L 14.875 38.875 L 15.125 38.375 L 15.750 37.625 L 16.250 37.000 L 17.000 36.125 L 18.375 34.750 L 19.500 33.750 L 20.500 32.875 L 21.000 32.625 L 21.750 31.875 L 22.250 31.625 L 23.000 30.875 L 23.250 30.750 L 24.125 30.750 L 24.375 30.875 L 25.500 31.875 L 27.375 33.625 L 28.000 34.250 L 28.000 34.875 L 27.875 35.125 L 27.250 35.750 L 26.750 36.000 L 26.125 36.625 L 25.500 37.000 L 24.375 38.000 L 21.875 40.500 L 21.000 41.500 L 20.250 42.375 L 20.000 42.875 L 19.250 43.625 L 19.000 44.000 L 18.875 44.375 L 18.500 44.750 L 18.125 45.375 L 17.875 46.000 L 17.250 46.750 L 17.125 47.000 L 16.750 48.250 L 16.375 48.750 L 16.250 49.000 L 16.000 49.625 L 15.875 50.375 L 15.375 51.375 L 15.250 51.750 L 15.125 52.375 L 15.000 53.375 L 14.875 55.000 L 14.875 57.875 L 15.000 59.250 L 15.125 60.000 L 15.250 60.500 L 15.375 61.000 L 15.500 61.375 L 15.750 61.750 L 15.875 62.500 L 16.125 63.250 L 17.125 65.375 L 17.375 65.750 L 18.000 66.750 L 18.250 67.125 L 18.875 67.750 L 19.125 68.250 L 20.000 69.375 L 20.750 70.250 L 21.750 71.375 L 22.375 72.000 L 23.375 72.875 L 23.875 72.875 L 23.875 72.375 L 23.750 72.000 L 23.250 71.500 L 23.125 71.250 L 22.625 69.875 L 22.500 69.625 L 22.250 69.375 L 22.125 69.125 L 22.000 68.875 L 21.875 68.500 L 21.750 68.125 L 21.750 67.750 L 21.625 67.375 L 21.125 66.375 L 21.000 66.000 L 20.875 65.375 L 20.750 64.500 L 20.625 63.375 L 20.500 61.750 L 20.500 59.500 L 20.625 58.375 L 20.750 57.375 L 20.875 56.500 L 21.000 56.000 L 21.125 55.625 L 21.750 54.250 L 21.875 53.375 L 22.000 53.000 L 22.625 51.875 L 22.875 51.125 L 23.000 50.750 L 23.500 50.250 L 23.750 49.875 L 24.125 49.125 L 24.750 48.375 L 24.875 48.000 L 25.125 47.625 L 25.625 47.125 L 26.125 46.250 L 27.000 45.125 L 27.625 44.500 L 27.875 44.125 L 28.000 43.750 L 28.375 43.250 L 28.875 42.750 L 29.750 42.000 L 30.500 41.625 L 30.875 41.250 L 31.250 41.000 L 31.625 40.875 L 32.000 40.625 L 32.625 40.000 L 33.000 39.750 L 33.250 39.625 L 34.000 39.625 L 34.250 39.750 L 34.500 39.875 L 35.500 40.875 L 37.125 42.125 L 38.000 43.000 L 38.125 43.250 L 38.125 43.625 L 38.000 43.875 L 37.250 44.625 L 36.625 45.000 L 35.625 45.875 L 34.500 46.875 L 33.000 48.375 L 32.125 49.375 L 31.750 50.000 L 31.000 50.750 L 30.250 51.625 L 30.000 52.250 L 29.250 53.250 L 28.500 54.625 L 28.000 55.625 L 27.875 56.250 L 27.125 57.625 L 27.000 58.000 L 26.875 58.500 L 26.750 59.750 L 26.625 60.375 L 26.250 61.375 L 26.125 62.000 L 26.125 65.250 L 26.250 66.250 L 26.750 67.625 L 26.875 68.750 L 27.000 69.250 L 27.125 69.625 L 27.250 70.000 L 27.375 70.250 L 27.625 70.500 L 27.750 70.750 L 27.875 71.375 L 28.250 72.125 L 28.625 72.500 L 29.000 73.375 L 29.250 73.750 L 29.500 74.125 L 29.875 74.500 L 30.250 75.250 L 31.000 76.000 L 32.000 77.375 L 33.375 78.750 L 34.375 79.625 L 34.750 79.750 L 35.000 79.500 L 34.875 79.000 L 34.750 78.750 L 34.000 77.875 L 33.125 76.500 L 33.000 76.250 L 32.875 76.000 L 32.625 75.375 L 32.250 74.375 L 31.875 73.250 L 31.750 72.625 L 31.625 72.000 L 31.500 71.250 L 31.250 69.625 L 31.125 68.375 L 31.125 67.750 L 31.250 67.625 L 31.250 66.875 L 31.500 66.250 L 31.625 65.500 L 31.750 64.750 L 31.750 63.875 L 31.875 63.125 L 32.000 62.500 L 32.125 62.125 L 32.250 61.750 L 32.625 61.000 L 32.875 59.875 L 33.125 59.250 L 34.000 57.500 L 34.250 57.125 L 34.750 56.500 L 35.500 55.750 L 36.625 54.375 L 37.000 53.750 L 37.875 52.750 L 39.875 50.750 L 40.875 49.875 L 41.750 49.125 L 42.375 48.750 L 42.500 48.625 L 43.000 48.000 L 43.250 47.875 L 43.750 47.875 L 44.750 48.875 L 45.750 49.625 L 46.750 50.625 L 47.250 50.875 L 47.875 51.500 L 48.000 51.750 L 48.000 52.375 L 47.250 53.125 L 47.125 53.125 L 45.125 54.875 L 44.000 56.000 L 42.500 57.625 L 41.875 58.375 L 41.375 59.000 L 41.000 59.500 L 40.750 60.000 L 40.250 60.500 L 40.000 60.875 L 39.875 61.250 L 39.500 61.625 L 39.125 62.250 L 39.000 62.500 L 38.875 63.125 L 38.250 64.250 L 38.000 64.875 L 37.875 65.375 L 37.750 66.375 L 37.500 66.875 L 37.375 67.500 L 37.250 68.375 L 37.250 71.750 L 37.375 72.625 L 37.875 75.250 L 38.000 75.625 L 38.125 76.000 L 38.250 76.250 L 38.625 76.750 L 39.250 78.250 L 39.750 78.750 L 40.000 79.375 L 40.250 79.750 L 41.000 80.500 L 41.125 80.875 L 41.250 81.000 L 41.500 81.125 L 41.875 81.000 L 41.875 80.250 L 41.750 79.750 L 41.625 79.375 L 41.375 79.000 L 41.250 78.625 L 41.125 78.250 L 41.000 77.375 L 41.000 73.375 L 41.125 72.750 L 41.375 71.875 L 41.750 71.000 L 41.750 70.500 L 41.875 70.000 L 42.000 69.625 L 42.125 69.250 L 42.750 68.125 L 42.750 67.750 L 43.000 67.125 L 43.125 66.875 L 43.625 66.250 L 43.750 66.000 L 43.875 65.500 L 44.125 65.000 L 44.375 64.625 L 44.750 64.250 L 44.875 63.875 L 45.125 63.500 L 45.750 62.750 L 46.625 61.750 L 47.625 60.625 L 49.375 58.875 L 49.500 58.875 L 51.375 57.000 L 52.375 56.125 L 53.125 56.125 L 53.375 56.250 L 54.125 56.875 L 56.000 58.625 L 56.500 58.875 L 56.875 59.250 L 56.875 60.000 L 56.625 60.375 L 56.250 60.750 L 55.625 61.000 L 54.875 61.625 L 53.500 62.875 L 52.000 64.375 L 51.125 65.375 L 50.750 66.000 L 50.125 66.625 L 49.875 67.250 L 49.375 67.875 L 49.000 68.500 L 48.875 69.125 L 48.750 69.375 L 48.000 70.625 L 47.875 71.375 L 47.750 71.750 L 47.250 72.750 L 47.125 73.250 L 47.000 73.875 L 47.000 78.125 L 47.125 78.750 L 47.250 79.250 L 47.625 80.250 L 47.750 80.500 L 47.875 80.750 L 48.250 81.125 L 48.500 81.125 L 48.875 80.750 L 49.125 80.375 L 49.750 79.375 L 50.125 78.625 L 50.750 77.375 L 50.875 77.000 L 51.125 75.750 L 51.875 73.875 L 52.000 73.625 L 52.125 73.375 L 53.000 71.750 L 53.250 71.375 L 53.625 71.000 L 53.875 70.375 L 54.125 70.000 L 54.625 69.500 L 55.000 68.750 L 56.875 66.875 L 60.125 63.750 L 61.000 63.000 L 62.375 62.000 L 63.000 61.750 L 63.375 61.500 L 63.750 61.125 L 64.500 60.750 L 65.250 60.125 L 65.625 59.875 L 66.125 59.750 L 66.375 59.625 L 66.750 59.375 L 67.125 59.000 L 68.250 58.500 L 68.625 58.125 L 69.125 57.875 L 70.875 57.000 L 71.875 56.750 L 72.250 56.625 L 72.750 56.250 L 73.375 56.000 L 73.750 55.875 L 74.125 55.875 L 74.500 55.750 L 75.875 55.000 L 76.625 54.875 L 77.000 54.750 L 77.625 54.375 L 78.625 54.000 L 79.000 53.875 L 79.875 53.750 L 80.250 53.625 L 81.750 52.875 L 83.000 52.625 L 83.750 52.250 L 84.125 52.125 L 84.625 52.000 L 85.375 51.875 L 86.000 51.875 L 86.750 51.750 L 88.750 51.125 L 89.500 51.000 L 90.375 50.875 L 91.375 50.875 L 92.125 50.750 L 92.625 50.625 L 93.625 50.250 L 94.375 50.125 L 95.625 50.000 L 98.000 49.875 L 99.250 49.750 L 100.375 49.500 L 101.500 49.375 L 111.500 49.375 L 112.750 49.625 L 114.000 49.625 L 115.250 49.750 L 116.375 49.875 L 117.500 50.000 L 118.500 50.125 L 119.375 50.250 L 120.375 50.625 L 120.875 50.750 L 121.500 50.875 L 122.250 50.875 L 123.000 51.000 L 123.500 51.125 L 124.000 51.250 L 124.875 51.625 L 125.375 51.750 L 126.625 51.875 L 127.250 52.000 L 127.875 52.375 L 128.250 52.500 L 128.500 52.500 L 128.750 52.375 L 128.875 52.250 L 128.875 52.125 L 129.125 51.875 L 129.500 51.250 L 129.625 50.875 L 130.000 49.750 L 130.125 49.250 L 130.125 48.500 L 130.000 48.250 L 129.875 48.125 L 129.625 48.000 L 129.125 47.750 L 128.750 47.750 L 127.625 47.125 L 127.250 47.000 L 125.875 46.875 L 123.750 46.250 L 123.125 46.125 L 122.250 46.000 L 121.375 46.000 L 120.625 45.875 L 119.875 45.750 L 117.875 45.250 L 116.750 45.125 L 115.125 45.000 L 113.125 44.875 L 111.250 44.750 L 104.125 44.750 L 102.250 45.000 L 100.000 45.125 L 97.500 45.125 L 96.375 45.250 L 95.625 45.375 L 94.250 45.750 L 93.500 45.875 L 92.625 46.000 L 91.500 46.000 L 90.625 46.125 L 89.875 46.250 L 88.250 46.750 L 87.625 46.875 L 86.250 47.000 L 85.625 47.125 L 84.000 47.750 L 83.375 47.875 L 82.250 48.000 L 81.625 48.125 L 80.875 48.375 L 80.125 48.750 L 79.625 48.875 L 78.750 49.000 L 77.875 49.250 L 76.625 49.875 L 76.250 50.000 L 75.750 50.000 L 74.875 50.250 L 74.000 50.750 L 73.375 51.000 L 73.000 51.000 L 72.625 51.125 L 71.000 52.000 L 70.625 52.000 L 69.875 52.375 L 69.625 52.625 L 69.375 52.750 L 69.125 52.875 L 68.500 53.000 L 67.250 53.750 L 67.000 53.875 L 66.125 54.125 L 65.875 54.250 L 65.250 54.750 L 65.000 54.875 L 64.500 55.000 L 64.250 55.125 L 63.875 55.375 L 63.500 55.750 L 63.125 56.000 L 62.750 56.125 L 62.250 56.125 L 62.000 56.000 L 61.750 55.875 L 59.625 53.875 L 58.625 52.875 L 58.500 52.625 L 58.500 52.250 L 58.875 51.875 L 59.250 51.625 L 59.625 51.375 L 60.250 51.000 L 60.500 50.875 L 61.000 50.750 L 61.750 50.125 L 62.125 50.000 L 62.625 49.750 L 63.250 49.625 L 64.250 49.000 L 64.875 48.875 L 66.750 47.875 L 67.125 47.875 L 67.750 47.625 L 68.875 47.000 L 69.250 46.875 L 69.625 46.750 L 70.125 46.750 L 71.000 46.250 L 71.625 46.000 L 72.875 45.750 L 74.000 45.125 L 74.875 44.875 L 75.375 44.875 L 75.750 44.750 L 76.125 44.625 L 76.500 44.375 L 76.875 44.250 L 77.250 44.250 L 77.625 44.000 L 78.125 44.000 L 79.000 43.750 L 81.125 43.000 L 82.625 42.625 L 83.250 42.625 L 83.750 42.375 L 84.250 42.375 L 84.625 42.125 L 85.250 42.000 L 85.750 41.875 L 86.500 41.750 L 87.500 41.750 L 88.375 41.625 L 89.125 41.500 L 89.750 41.250 L 90.375 41.125 L 91.125 41.000 L 92.000 40.875 L 94.000 40.750 L 94.875 40.625 L 96.375 40.250 L 97.375 40.125 L 98.500 40.000 L 100.500 39.875 L 103.375 39.750 L 110.000 39.750 L 113.500 39.875 L 115.250 40.000 L 116.500 40.125 L 117.375 40.250 L 118.250 40.375 L 119.125 40.625 L 120.000 40.750 L 121.000 40.875 L 122.125 40.875 L 123.125 41.000 L 123.875 41.125 L 124.500 41.250 L 125.000 41.500 L 125.375 41.500 L 125.625 41.375 L 125.875 41.125 L 126.000 40.750 L 126.000 36.500 L 125.625 36.125 L 125.375 36.000 L 124.250 36.000 L 123.250 35.875 L 122.375 35.625 L 121.500 35.625 L 119.875 35.250 L 118.750 35.125 L 117.500 35.000 L 115.625 35.000 L 113.750 34.750 L 111.500 34.625 L 107.375 34.500 L 105.000 34.500 L 102.500 34.625 L 100.000 34.750 L 98.375 35.000 L 96.625 35.000 L 95.250 35.125 L 94.375 35.250 L 93.625 35.375 L 92.875 35.625 L 92.125 35.750 L 91.250 35.875 L 89.000 36.000 L 88.250 36.125 L 87.500 36.250 L 86.500 36.625 L 85.750 36.750 L 85.000 36.875 L 84.250 36.875 L 83.500 37.000 L 83.000 37.125 L 82.500 37.250 L 81.125 37.750 L 78.125 38.375 L 77.625 38.500 L 77.250 38.750 L 76.375 39.000 L 75.875 39.125 L 75.375 39.250 L 74.750 39.250 L 74.375 39.375 L 73.375 39.875 L 73.000 40.000 L 72.125 40.125 L 71.625 40.250 L 70.375 40.875 L 69.500 41.000 L 69.125 41.125 L 68.750 41.250 L 68.500 41.375 L 68.250 41.625 L 68.000 41.750 L 67.625 41.750 L 67.250 42.000 L 66.875 42.000 L 66.500 42.125 L 65.125 42.875 L 64.375 43.000 L 63.750 43.250 L 63.125 43.750 L 62.875 43.875 L 61.875 44.125 L 61.625 44.250 L 61.000 44.750 L 60.750 44.875 L 59.750 45.125 L 59.500 45.250 L 58.250 46.000 L 57.625 46.125 L 57.000 46.625 L 56.500 46.875 L 56.000 47.000 L 55.750 47.125 L 55.500 47.250 L 55.000 47.750 L 54.250 48.125 L 53.875 48.250 L 53.375 48.250 L 53.125 48.125 L 51.875 46.875 L 50.750 45.875 L 49.750 45.125 L 49.250 44.625 L 49.250 44.125 L 50.000 43.375 L 50.500 43.000 L 50.750 42.875 L 51.000 42.875 L 51.250 42.750 L 52.000 42.125 L 53.125 41.625 L 53.750 41.125 L 54.000 41.000 L 54.250 40.875 L 54.500 40.875 L 55.250 40.500 L 55.625 40.125 L 55.875 40.000 L 56.500 39.875 L 57.000 39.625 L 57.500 39.250 L 57.750 39.125 L 58.125 39.000 L 58.500 38.875 L 58.875 38.875 L 59.250 38.750 L 59.500 38.625 L 60.000 38.250 L 60.500 38.000 L 61.125 37.875 L 61.625 37.625 L 62.625 37.000 L 63.000 36.875 L 64.000 36.625 L 64.250 36.500 L 64.750 36.125 L 65.125 36.000 L 65.500 35.875 L 66.875 35.625 L 67.250 35.500 L 67.875 35.125 L 68.250 35.000 L 68.625 34.875 L 69.125 34.875 L 69.500 34.750 L 69.875 34.625 L 70.875 34.125 L 71.375 34.000 L 72.375 33.875 L 73.625 33.375 L 74.500 33.125 L 75.000 33.000 L 76.125 32.875 L 76.625 32.750 L 77.625 32.375 L 78.125 32.375 L 79.000 32.000 L 79.500 31.875 L 80.000 31.750 L 80.750 31.625 L 81.500 31.625 L 82.125 31.500 L 83.125 31.125 L 84.125 30.875 L 85.000 30.750 L 86.000 30.750 L 86.750 30.625 L 87.375 30.500 L 88.500 30.125 L 89.125 30.000 L 90.125 29.875 L 92.500 29.750 L 93.375 29.625 L 95.125 29.250 L 96.250 29.125 L 98.000 29.000 L 103.500 28.875 L 105.000 28.875 L 112.750 29.000 L 115.125 29.125 L 116.250 29.250 L 117.125 29.500 L 117.500 29.500 L 118.000 29.375 L 118.250 29.250 L 118.375 29.125 L 118.500 28.875 L 118.625 28.625 L 118.750 25.250 L 118.750 24.625 L 118.625 24.375 L 118.250 24.000 L 118.000 23.875 L 117.500 23.750 L 117.000 23.625 L 115.250 23.625 L 113.750 23.375 L 110.375 23.250 L 105.750 23.125 L 104.625 23.125 L 100.750 23.250 L 97.625 23.375 L 96.500 23.625 L 93.875 23.750 L 92.625 24.000 L 91.375 24.000 L 90.000 24.125 L 89.125 24.250 L 88.375 24.375 L 87.125 24.750 L 86.375 24.875 L 85.375 24.875 L 84.375 25.000 L 83.625 25.125 L 82.250 25.625 L 81.500 25.750 L 80.625 25.875 L 79.750 25.875 L 79.000 26.000 L 78.375 26.125 L 77.875 26.250 L 77.375 26.500 L 75.750 26.750 L 75.250 26.875 L 74.750 27.000 L 73.125 27.625 L 72.250 27.875 L 71.750 28.000 L 71.250 28.125 L 70.625 28.125 L 70.125 28.250 L 69.625 28.375 L 69.000 28.750 L 68.625 28.875 L 68.250 29.000 L 67.250 29.125 L 66.750 29.250 L 66.375 29.375 L 65.750 29.750 L 65.375 29.875 L 64.875 30.000 L 64.375 30.000 L 64.000 30.125 L 63.625 30.250 L 63.125 30.625 L 62.000 31.000 L 61.500 31.000 L 61.125 31.125 L 60.875 31.250 L 60.625 31.375 L 60.375 31.625 L 60.125 31.750 L 58.750 32.125 L 57.125 33.000 L 56.750 33.000 L 56.250 33.250 L 54.875 34.000 L 53.625 34.375 L 53.125 34.750 L 52.875 34.875 L 52.000 35.125 L 51.750 35.250 L 51.125 35.750 L 50.000 36.125 L 49.625 36.375 L 49.375 36.625 L 49.000 36.875 L 48.500 37.000 L 48.000 37.250 L 47.625 37.625 L 47.250 37.875 L 47.000 38.000 L 46.750 38.000 L 46.500 38.125 L 45.500 38.875 L 45.000 39.125 L 44.250 39.500 L 43.625 39.500 L 43.375 39.375 L 43.125 39.250 L 42.250 38.500 L 41.500 37.875 L 40.125 36.625 L 39.875 36.375 L 39.625 36.000 L 39.500 35.750 L 39.500 35.375 L 40.000 34.875 L 40.875 34.500 L 41.500 34.000 L 41.750 33.875 L 42.000 33.875 L 42.250 33.750 L 42.875 33.250 L 44.250 32.625 L 44.625 32.250 L 45.875 31.750 L 46.125 31.625 L 46.750 31.125 L 47.250 30.875 L 47.750 30.750 L 48.000 30.625 L 48.250 30.500 L 48.625 30.125 L 48.875 30.000 L 49.125 29.875 L 49.625 29.750 L 49.875 29.625 L 50.375 29.250 L 50.625 29.125 L 51.000 29.000 L 51.750 28.875 L 52.125 28.750 L 52.375 28.625 L 52.625 28.375 L 52.875 28.250 L 53.500 28.000 L 54.875 27.625 L 55.750 27.125 L 56.125 27.000 L 56.500 26.875 L 56.875 26.875 L 57.250 26.750 L 57.875 26.500 L 59.000 25.875 L 59.750 25.750 L 60.125 25.625 L 61.000 25.125 L 61.375 25.000 L 61.750 24.875 L 62.250 24.875 L 63.125 24.625 L 63.500 24.500 L 64.500 24.000 L 65.500 23.875 L 66.000 23.750 L 66.375 23.625 L 66.750 23.375 L 67.125 23.250 L 67.500 23.125 L 68.000 23.000 L 69.000 22.875 L 69.500 22.750 L 70.750 22.250 L 71.875 22.000 L 73.000 21.875 L 74.000 21.625 L 75.500 21.125 L 76.625 20.875 L 77.375 20.750 L 78.750 20.625 L 79.500 20.500 L 80.000 20.375 L 80.500 20.125 L 81.125 20.000 L 81.750 19.875 L 82.625 19.750 L 83.500 19.750 L 84.375 19.625 L 85.125 19.500 L 85.750 19.250 L 86.500 19.125 L 87.375 19.000 L 88.500 18.875 L 90.375 18.875 L 92.000 18.750 L 95.125 18.250 L 96.250 18.125 L 98.375 18.000 L 102.500 17.875 L 109.625 17.875 L 109.875 17.750 L 110.125 17.500 L 110.250 17.250 L 110.250 13.250 L 110.125 12.500 L 109.625 12.000 L 109.250 11.875 L 108.250 11.750 L 103.875 11.750 L 100.500 11.875 L 97.125 12.000 L 93.875 12.125 L 92.500 12.250 L 91.000 12.375 L 89.375 12.750 L 88.500 12.875 L 87.500 13.000 L 86.125 13.000 L 84.875 13.125 L 84.000 13.250 L 83.250 13.375 L 81.875 13.750 L 81.125 13.875 L 80.250 14.000 L 79.125 14.000 L 78.375 14.125 L 77.750 14.250 L 76.750 14.625 L 76.250 14.750 L 74.875 14.875 L 74.250 15.000 L 73.750 15.125 L 72.375 15.625 L 69.875 16.000 L 69.375 16.125 L 68.875 16.250 L 68.000 16.625 L 66.500 17.000 L 65.375 17.250 L 64.750 17.250 L 64.375 17.375 L 64.000 17.500 L 63.250 17.875 L 62.500 18.125 L 62.000 18.125 L 61.500 18.250 L 61.125 18.375 L 60.125 18.875 L 59.625 19.000 L 59.250 19.000 L 58.750 19.125 L 57.250 19.875 L 56.375 20.000 L 55.750 20.250 L 55.250 20.625 L 54.875 20.750 L 54.500 20.875 L 53.750 21.000 L 52.000 21.875 L 50.750 22.125 L 50.125 22.375 L 49.250 22.875 L 48.625 23.000 L 48.000 23.250 L 47.750 23.375 L 47.250 23.750 L 47.000 23.875 L 46.000 24.125 L 45.625 24.250 L 45.250 24.625 L 45.000 24.750 L 44.750 24.875 L 43.875 25.125 L 43.250 25.625 L 43.000 25.750 L 42.750 25.875 L 41.875 26.125 L 41.250 26.625 L 39.625 27.375 L 39.250 27.750 L 39.000 27.875 L 38.750 28.000 L 38.500 28.000 L 38.250 28.125 L 37.250 28.875 L 37.000 29.000 L 36.750 29.000 L 36.500 29.125 L 35.500 29.875 L 34.500 30.375 L 33.500 30.375 L 33.125 30.125 L 32.125 29.125 L 31.500 28.750 L 30.500 27.875 L 29.625 27.000 L 29.500 26.750 L 29.500 26.375 L 29.625 26.125 L 29.750 26.000 L 29.875 26.000 L 30.125 25.750 L 30.500 25.625 L 30.875 25.250 L 31.250 25.000 L 32.125 24.625 L 32.500 24.250 L 32.875 24.000 L 33.875 23.625 L 34.500 23.125 L 34.750 23.000 L 35.000 22.875 L 35.500 22.750 L 36.000 22.500 L 36.250 22.250 L 36.750 22.000 L 37.250 21.875 L 37.500 21.750 L 38.375 21.125 L 38.625 21.000 L 38.875 20.875 L 39.375 20.750 L 39.875 20.500 L 40.375 20.125 L 40.625 20.000 L 40.875 19.875 L 41.750 19.625 L 42.000 19.500 L 42.250 19.250 L 42.500 19.125 L 42.750 19.000 L 43.750 18.750 L 44.125 18.625 L 44.625 18.250 L 44.875 18.125 L 46.250 17.750 L 47.625 17.000 L 48.500 16.875 L 48.875 16.750 L 49.250 16.625 L 50.500 16.000 L 51.875 15.625 L 52.250 15.500 L 52.750 15.125 L 53.000 15.000 L 53.375 14.875 L 54.250 14.750 L 54.625 14.625 L 55.000 14.500 L 55.625 14.125 L 56.000 14.000 L 56.375 13.875 L 57.375 13.750 L 58.375 13.250 L 58.750 13.125 L 59.125 13.000 L 59.625 12.875 L 60.250 12.875 L 60.750 12.750 L 61.750 12.250 L 62.625 12.000 L 63.250 12.000 L 64.125 11.750 L 65.375 11.250 L 65.875 11.125 L 67.125 10.875 L 68.250 10.750 L 70.000 10.375 L 70.875 10.000 L 71.375 9.875 L 71.875 9.750 L 73.125 9.625 L 75.125 9.000 L 75.875 8.875 L 76.875 8.750 L 78.000 8.750 L 78.875 8.625 L 79.500 8.500 L 80.750 8.125 L 81.500 8.000 L 82.750 7.875 L 84.125 7.875 L 85.125 7.750 L 86.000 7.625 L 86.750 7.375 L 87.500 7.250 L 88.625 7.125 L 90.000 7.000 L 92.875 6.875 L 95.625 6.875 L 98.375 6.750 L 100.125 6.625 L 100.375 6.500 L 100.750 6.125 L 100.875 5.750 L 100.875 0.000 Z M 40.500 97.625 L 41.250 97.625 L 41.750 97.750 L 42.125 97.875 L 42.375 98.000 L 43.875 99.000 L 45.000 100.125 L 45.250 100.500 L 45.750 101.375 L 45.875 101.625 L 46.000 101.875 L 46.125 102.250 L 46.250 102.750 L 46.375 103.375 L 46.500 104.125 L 46.625 106.375 L 46.750 112.125 L 46.750 112.375 L 46.625 112.500 L 46.625 112.875 L 46.500 113.125 L 46.375 113.250 L 46.125 113.375 L 45.375 113.375 L 44.375 112.875 L 43.875 112.875 L 43.375 112.750 L 42.750 112.500 L 42.125 112.125 L 41.625 112.000 L 40.625 111.875 L 40.250 111.750 L 39.875 111.625 L 39.250 111.250 L 38.625 111.125 L 37.875 110.750 L 37.500 110.375 L 37.375 110.125 L 37.250 109.875 L 37.125 109.500 L 37.125 107.250 L 37.250 101.500 L 37.375 100.750 L 37.625 99.875 L 37.750 99.500 L 38.875 98.375 L 39.375 98.000 L 39.625 97.875 L 40.000 97.750 Z M 22.750 89.250 L 23.375 89.250 L 23.750 89.375 L 24.750 89.875 L 25.125 90.125 L 25.875 90.875 L 26.500 91.625 L 26.750 92.000 L 27.125 92.750 L 27.625 93.875 L 27.750 94.375 L 27.875 95.500 L 28.000 98.000 L 28.000 102.750 L 28.000 103.000 L 27.875 103.750 L 27.750 104.000 L 27.625 104.250 L 27.500 104.375 L 27.250 104.500 L 26.625 104.375 L 26.125 104.500 L 25.750 104.750 L 24.750 104.750 L 23.750 104.250 L 23.375 104.000 L 22.500 103.375 L 22.000 103.000 L 21.000 102.125 L 20.375 101.500 L 20.125 101.125 L 20.000 100.750 L 20.000 93.500 L 20.125 92.375 L 20.250 91.875 L 20.375 91.500 L 20.625 91.250 L 20.750 90.750 L 20.875 90.500 L 21.500 89.875 L 21.875 89.625 L 22.125 89.500 L 22.375 89.375 Z M 8.500 79.125 L 8.875 79.250 L 9.125 79.375 L 9.375 79.500 L 9.750 79.750 L 10.125 80.000 L 10.875 80.750 L 11.125 81.125 L 11.375 81.500 L 11.750 82.250 L 11.875 82.625 L 12.000 83.125 L 12.125 83.625 L 12.250 84.375 L 12.375 85.375 L 12.500 87.875 L 12.500 90.375 L 12.375 90.875 L 12.250 91.250 L 11.875 92.000 L 11.625 92.375 L 10.750 93.250 L 10.375 93.500 L 9.625 93.500 L 9.375 93.375 L 9.125 93.250 L 8.750 93.000 L 8.375 92.750 L 7.750 92.125 L 7.125 91.375 L 7.000 90.375 L 7.000 83.000 L 7.125 81.625 L 7.250 80.500 L 7.625 79.750 L 8.125 79.250 Z" fill="#FFFFFF" fill-rule="evenodd"/>
</svg>
