<svg xmlns="http://www.w3.org/2000/svg" width="491" height="145"><path fill="#FFF" fill-rule="evenodd" d="m274.25 58.625-.625.125-.25.125-.25.125-.375.375-.125.25V60l.125.375.5.5.375.125h1.625l1.125.125.75.125 1.125.375.625.25.25.125.875.875.5.625.375.75.125.375.125.5.375 1.75.125.625.125 3.375v44.5l-.125 5.25-.25 1.75v3.5l-.125 2.625-.125 1.625-.125 1.75-.125.75-.125.625-.375 1.125-.25.625-.125.375-.75.75-.75.375-.375.125-.5.125-.875.125h-1.625l-1.375.125-.375.125-.25.125-.375.375-.125.375v.5l.125.25.625.625.25.125 1.125.125 5.625-.125 2.75-.125 1.375-.25h9.375l1.5.25 2.375.125h8l.5-.125.25-.125.5-.5.125-.25v-.625l-.125-.25-.375-.375-.25-.125-1.5-.125h-1.625l-1.5-.125-.875-.125-.5-.125-.625-.125-1-.375-.25-.125-.875-.875-.375-.5-.125-.25-.125-.25-.25-.875v-.5l-.5-1.375-.125-1L296 128.5l-.125-3.75-.125-5.625-.125-9.875v-35l.125-4.125.125-2.375.125-1.375.125-.875.125-.5.125-.375.375-.875.125-.25.25-.375L298.25 62l.25-.125.25-.125 1.625-.5.75-.125h1.25L303.75 61l.375-.125.25-.125.125-.125.125-.25V59.5l-.125-.25-.25-.25-.25-.125-.625-.25H299.5l-3 .25-3.75.125h-7.5l-3.625-.125-3.125-.25Zm-90.5 0-.375.125-.375.125-.5.25-.25.375v.625l.125.25.375.375.25.125.5.125h1.5l1.25.125.5.125.375.125 1.75.625.25.125 1 .625.375.25.75.625.875.875.375.5.375.5.125.25V66l.125.25.5.625.375.75V68l.375.875.125.25.25.25.125.25.25 1 .25.625.375.5.125.25.25.625V73l.625 1.125.25.625v.375l.25.5.625 1 .125.75.125.375.75 1.375.125.375.125.75.125.25.75 1.25v.375l.375 1 .375.5.125.25.25 1 .125.375.75 1.25.125.625.5.875.25.625.25 1 .75 1.375.125.75.125.375.125.25.25.25.375.875.125.625L206 96l.25 1 .625 1.125.25 1 .125.25.375.5.125.25.25.625v.375l.25.5.625 1.125.125.75.125.375.75 1.375.25 1 .75 1.375.375 1.25.625 1.125.25 1 .75 1.375.25 1 .125.25.125.25.25.25.125.25.125.25.25 1 .625 1 .125.375.125.375.125.75.125.25.375.5.25.5.25 1 .25.5.5.75.125.375.125.625.25.625.25.25.125.25.375 1.375.5.875.375 1.25.875 1.625.125.75.125.375.125.25.125.25.25.25.125.25.125.25.25 1 .5 1 1.25 2.5.25 1 .125.25.125.25.25.25.125.25.125.25.125.625.125.25.25.375.5.5.25.5.375.375.25.125.25.125.375.125H227l.375-.125 1-1 .375-.5.375-.875.375-.375.25-.5.75-1.375.125-.25v-.375l.25-.375v-.375l.25-.5.75-1.375.25-1 .125-.25.125-.25.25-.25.125-.25.25-.625.125-.625.125-.25.25-.25.125-.25.25-.625V128l.125-.375.75-1.25.125-.625.25-.625.125-.25.375-.5.125-.25.125-.75L236 123l.75-1.375.25-1 .125-.25.75-1.25v-.375l.25-.5.25-.625.25-.25.125-.25.125-.625.25-.625.125-.25.25-.25.125-.25.125-.25.25-1 .125-.25.375-.5.125-.25.25-1 .125-.25.125-.25.375-.5.25-.5.125-.625.375-.875.125-.25.25-.25.125-.25.375-1.375.125-.25.25-.25.125-.25.125-.25.125-.375.125-.75.125-.25.75-1.25v-.375l.25-.5.125-.25.5-.75.125-.375.25-1 .125-.25.375-.5.125-.25.25-1 .625-1 .25-.625.125-.625 1.75-3.5.125-.625.25-.5.5-.75.125-.375.25-1 .125-.25.375-.5.25-.5.25-.875.5-.875.625-1.75.625-1.125.375-1.25.5-.625.25-.625.125-.625.75-1.375.25-.875.75-1.375.125-.625.375-.875.625-1 .25-1 .125-.25.25-.25.125-.25.125-.25.25-1 .875-1.625.125-.625.75-1.125.125-.25v-.25l.125-.25 1.125-1.875.625-.625.125-.375.375-.375v-.125l.25-.25.625-.5.5-.375.25-.125.75-.25 1-.375.375-.125.5-.125.75-.125h1.25l.75-.125.25-.125.125-.125.125-.25v-1l-.125-.25-.375-.25-.375-.125-.625-.125h-1.125l-3.25.125-3.125.25h-5l-4.375-.125-3.75-.25h-2l-1 .125-.25.125-.25.125-.375.375v.875l.125.25.25.25.25.125.375.125h1.5l1.25.125.875.125.5.125.375.125.625.25.25.125.25.25h.125l.125.125v.125l.25.25.125.25.125.25.125.5v.625L252 65.5l-.125.5-.125.375-.625 1.125-.375 1.375-.625 1.125-.125.375-.125.75-.25.5-.5.875-.25 1-.75 1.375-.125.75-.125.375-.125.25-.25.25-.125.25-.5 1.625-.75 1.375-.25 1-.125.5-.375.5-.125.25-.25.625V83l-.125.375-.75 1.25-.25 1-.625 1.125-.375 1.375-.75 1.375-.375 1.375-.625 1.125-.125.375-.125.75-.125.25-.125.25-.25.25-.125.25-.125.25-.125.375v.375l-.125.375-.75 1.375-.25 1-.125.375-.375.5-.125.25-.25 1-.75 1.5-.125.375v.375l-.25.625-.125.25-.125.25-.25.25-.125.25-.25.625v.375l-.125.375-.125.25-.375.5-.25.5-.25 1-.875 1.625-.125.625-.125.375-.375.5-.125.25-.25 1-.625 1.125-.375.875-.125.625-.25.5-.375.5-.125.25v.375l-.375 1-.125.25-.25.375-.625.625h-.375L229 118l-.125-.25-.125-.375V117l-.125-.375-.375-.625-.25-.625-.125-.375v-.375l-.125-.375-.75-1.375v-.375l-.25-.625-.5-.875-.25-.625-.125-.375v-.375l-.125-.375-.125-.375-.625-1.125-.125-.375V107l-.125-.375-.375-.875-.375-.5-.125-.375-.25-1-.125-.375-.25-.25-.125-.25-.125-.375-.125-.375v-.375l-.125-.375-.75-1.375-.125-.75-.125-.375-.125-.25-.125-.25-.25-.25-.125-.25-.375-1.375-.375-.875-.375-.5-.125-.375-.125-.75-.125-.375-.625-1.125-.25-1-.75-1.375-.25-1.25-.5-.875-.25-.625-.25-1-.75-1.375v-.5l-.125-.375-.125-.375-.125-.25-.375-.5-.25-.75-.25-.875-.25-.625L214 80l-.125-.375-.125-.75-.125-.375-.375-.5-.375-.875-.125-.75-.125-.375-.625-1.125-.125-.875-.125-.375-.75-1.375-.125-.75-.125-.375-.625-1.125-.25-1.25-.625-1.5-.125-.5-.125-.5-.125-.625-.125-1.25v-.625l.125-.5L209 63l.125-.25.75-.75.75-.375 1-.375.875-.125h1l1.125-.125.625-.125.375-.25.125-.25.125-.25V59.5l-.125-.25-.25-.25-.25-.125-.375-.125-.5-.125h-3.5l-2.75.25L204.5 59H196l-4.25-.125-4.125-.25Zm-34.75 0-.625.125-.5.125-.375.125-.25.25-.125.25v.375l.125.375.375.375.25.125.25.125.5.125h1.625l1.25.125.75.125.375.125.625.25 1 .5.5.5.375.5.375.5.375.75.125.375.125.75.125.875.125 1.375.125 1.5.125 2.75v42.875l-.125 5.875-.125 3.375-.25 2.25v2.25L156 130.25l-.125 1.25-.125 1.125-.125.75-.125.375-.125.375L155 135l-.125.25-.25.375-.25.25-.375.25-.625.375-.375.125-.5.125-1.125.125H149.5l-1 .125-.25.125-.625.625-.125.25v.5l.125.25.375.375.375.25.25.125h6l2.625-.125 1.25-.25h3.75l.125-.125H166l3.25.125 1.375.25 2.125.125h7.5l.75-.25.375-.125.375-.375.125-.25v-.625l-.25-.5-.375-.25-.875-.125h-2l-1.375-.125-.875-.125-.625-.125-.5-.125-.5-.125-.375-.125-.375-.125-.25-.125-.25-.125-.5-.5-.5-.625-.25-.375-.125-.25-.125-.375-.5-2-.125-.625-.125-1-.125-1.375-.125-2.125-.125-3.875-.125-5.875v-44.25l.125-3.25.125-2.25.125-1L171 65.5l.125-.625.125-.375.375-.875.25-.375L173 62.125l.75-.375h.5l.75-.375.375-.125.625-.125h1.125l1.25-.125.375-.125.375-.25.125-.25.125-.25v-.5l-.125-.25-.375-.375-.25-.125-.25-.125-.75-.125H174l-2.875.25-3.75.125H159.5l-3.75-.125-3.375-.25Zm292.25-1.875-.625.125-.375.125-.25.125-.5.375-.125.125-.375.5-.375.75-.375.625-.125.25-.375 1.25-.125.25-.25.25-.125.25-.125.25-.25.625V63l-.125.25-.125.25-.25.25-.125.25-.25.625V65l-.25.5-.625 1.125-.125.625-.25.625-.5.625-.125.375-.125.625-.25.625-.125.25-.25.25-.125.25-.125.375L433 72l-.375.75-.25.25-.375.75-.125.625-.75 1.375-.25.875-.125.25-.125.25-.25.25-.125.25-.125.25-.125.625-.25.625-.375.5-.125.25-.125.75L429 81l-.5 1-1.5 3-.25 1-.625 1.125-.125.375-.125.75-.875 1.5-.125.625-.25.5-.375.5-.125.25-.25 1-.625 1.125-.125.375v.375l-.125.375-.125.375-.125.25-.75 1.25-.125.625L421 99l-.25 1-.125.25-.375.5-.125.25-.375 1.125-.5.625v.375l-.375 1-.125.25-.25.25-.125.25-.25.625-.25 1-.125.25-.125.25-.25.25-.125.25-.125.25-.375 1.375-.125.25-.375.5-.25.625-.125.625-.125.25-.375.5-.25.5-.25 1-.25.5-.375.5-.125.25-.25 1-.125.25-.125.25-.25.25-.125.25-.125.25-.125.75-.125.375-.125.25-.25.25-.125.25-.375.875V120l-.375.75-.25.25-.125.25-.125.25-.375 1.25-.125.25-.125.25-.25.25-.125.25-.25.875-.25.5-.375.5-.125.25-.25 1-.125.25-.375.5-.25.625-.125.625-.125.25-.125.25-.5.625-.5 1.125-.625.75v.25l-.25.375-.375.5-.5.625-1.125 1.125-.5.375-1 .625-.25.125-.25.125-.875.25-.5.125-.5.125-1.25.125-1.125-.125-.875-.25-.875-.25-.375-.125-.5-.25-.5-.375-.25-.125-.625-.125-.25-.125-.875-.625-.25-.125-.5-.125-.25-.125-.75-.625-.375-.25-.625-.25-.625-.625-.5-.25-.5-.5-.5-.25-.5-.375-1-.875-.875-.75-1.125-1-8.25-8.25-2.125-2.25-1-1.25-2.875-3-1-1.125-.75-1-1-1-.375-.625-1-1.125-.25-.25-1.5-1.375-1-1.125-.5-.75-.75-.875-1.125-1.125-1.75-2.125-2-2.25-3.125-3.375-.875-1-.625-.75-.125-.375v-.375l.125-.25.125-.25.375-.375.75-.625 2.25-2.25 1.25-1.25 1.875-2.125 1-1L360.5 84l2.125-2 9.625-9.75 2.5-2.375 1.125-1 1-.875.5-.25.625-.625.625-.375.625-.625.625-.375.75-.75.75-.375.5-.5.75-.375h.25l.25-.125.25-.125.375-.375L384 63l.25-.125.875-.25.25-.125.25-.25.25-.125.375-.125.375-.125.875-.125 1.25-.5.625-.125 2.25-.125.5-.125.5-.25.125-.25.125-.25v-.5l-.25-.5-.375-.25-.5-.125-.5-.125h-3.75l-2.5.25-2.75.125H377l-4.625-.25H366.5l-.75.375-.25.25-.125.25V60l.125.375.375.375.75.375.625.125.375.25.625.625.125.25.125.25v1l-.125.375-.375 1-.125.375-.375.5-.5.75-.375.5-.625.75-.875.875-.75.875-.375.625-.625.75-2.25 2.375-2.25 2.375L355 79.625l-1.75 2-2.125 2.25-3.25 3.25L346.25 89l-4 4.125-.5.5-.25.125h-.25l-.375-.375-.125-.25v-1.25l.125-1.5v-10.25l-.125-2.75.125-7.875.125-1.875.125-.875.25-.625.125-1.375.25-.75.125-.375.25-.375 1.125-1.125.375-.25.5-.125 1.5-.5.75-.125h.875l1.125-.125.375-.125.25-.125.5-.5.125-.5-.125-.375-.375-.375-.25-.125-.375-.125-.375-.125h-2.5l-3 .25-3.875.125h-8.125l-4.25-.125-3.75-.25h-3.875l-.625.125-.5.125-.25.125-.25.25-.125.25v.75l.125.25.25.25.25.125.625.125h1.5l1.25.125.625.125.5.125 1.5.5.25.125.25.125.375.25 1.125 1.125.25.375.25.625.375 1 .125.625.125.5.125.875.125 9.875v1.875l-.125 2.375.125 23.125-.125 15.875-.125 3.375-.125 3-.125 2-.125 1-.125 1-.375 2.375-.125.75-.25.5-.5 1-.375.375-.375.25-.875.375-.5.125-1 .125h-2.125l-.875.125-.375.125-.5.5v.875l.125.25.125.125.25.125.25.125.625.25.625.125h5.25l2.875-.125 1.5-.25L335.5 139h.625l3.625.125 1.5.25 2 .125 2.625.125h1.875l2-.125.5-.125.75-.375.375-.25.125-.25v-.5l-.125-.25-.5-.5-.25-.125-.375-.125h-2l-1.75-.125-.75-.125-.5-.125-.5-.125-1-.375-.25-.125-.625-.625-.25-.375-.375-.625-.125-.25-.125-.375-.125-.375-.125-.625-.125-.75-.125-.875-.25-2.125-.125-1.125-.125-1.5-.125-3-.125-7.625.125-13.5-.125-1.25v-.625l.125-.625.125-.25.125-.125.25-.125.25.125.625.625.625.75.375.625.75.75.375.625.625.625.875 1.125.25.5.75.75.25.5.75.75.25.5.75.875.875.875.375.625.625.625.25.5.625.625.375.625.875 1 .875.875 1.25 1.625 1.625 1.75.5.75.75.75.5.75.75.875.875 1 1 1 .875 1 .5.75.875 1 .875 1 1.75 1.875 4.25 4.25.75.5.75.75.5.25.5.5.875.5.5.5.5.375.625.25.375.375.375.25.625.25.625.125.25.125.25.25.25.125.625.25h.5l1.125.375.625.375.375.125.625.125 1.625.125 1.125.375.875.125 1.375.125H396l4.375-.125 3.5-.125 1.375-.25h8.875l2.25.375 5.75.125.625-.125.375-.125.25-.125.25-.25h.125l.125-.125.125-.25v-.75l-.125-.25-.5-.5-1-.125h-1.125l-1.125-.125-.75-.125-.625-.125-1-.375-.25-.125-.25-.125-.625-.625-.125-.25-.125-.25-.125-.375-.125-.375v-1l.125-.75.125-.5.375-.875.125-.875.125-.375.75-1.375.5-1.625.125-.25.25-.25.125-.25.125-.375.125-.75.125-.375.625-1 .125-.375v-.375l.25-.5.625-1.125.25-1 .125-.25.375-.5.125-.25.375-1.375.875-1.625v-.375l.375-1 .375-.625.125-.625.125-.25.125-.25.625-.625h1.875l.125.125h1.75l21-.25h2.75l.375.125.625.625.375.5.5 1 .125.625.5.875.25.625.125.375v.375l.125.375.125.375.125.25.25.25.125.25.25.625v.375l.125.375.875 1.625v.375l.375.875.375.5.125.25v.375l.375 1 .375.5.125.25.25 1 .25.5.625 1 .375 1.25.625 1.125.375 1.375.125.25.25.25.375.875.125.75.25.375.125.375v.25l-.125.25-.125.25-1.125 1.125-.125.25-.125.25-.125.375v.375l.125.25.25.25.25.125.25.125.875.125h2.25l1.625.25 4.125.125h17.625l1.125-.125.875-.5.375-.125h.375v-1.25h-.5l-.625-.375-.5-.125h-2.5l-1-.125-.5-.125-.5-.125-.75-.25-1.125-.375-.25-.125-.25-.125-1.25-.875-.625-.5-1.375-1.375-.875-1.125-.375-.5-.125-.375-.25-.375-.5-.5-.125-.25v-.25l-.25-.375-.5-.625-.375-1-.375-.375-.5-1-.125-.625-.625-.875-.125-.25-.125-.25-.125-.625-.125-.25-.625-1-.125-.5-.375-.75-.25-.25-.375-.75v-.375l-.375-.75-.25-.25-.125-.25-.125-.25-.375-1.25-.125-.25-.375-.5L470 116l-.25-1-.125-.25-.125-.25-.25-.25-.375-.75-.125-.75-.125-.25-.375-.5-.25-.5-.25-1-.125-.25-.75-1.25-.375-1.125-.375-.5-.125-.25-.375-1.25-.125-.25-.375-.5-.125-.375-.25-1-.125-.25-.375-.5-.25-.5-.25-1-.25-.5-.5-.75-.375-1.25-.125-.25-.25-.25-.125-.25L462 98v-.375l-.25-.625-.125-.25-.375-.5-.125-.25-.375-1.375-.125-.25-.25-.25-.375-.75-.375-1.25-.625-1-.125-.375-.25-1-.125-.25-.75-1.25-.125-.625-.5-.625-.25-.625-.125-.625-.125-.25-.25-.25-.125-.25-.375-.875-.125-.625-.125-.25-.375-.5-.25-.5-.125-.625-.25-.625-.125-.25-.375-.5L454 80l-.125-.375-.125-.75-.125-.25-.125-.25-.375-.5-.375-.75v-.375l-.125-.25-.75-1.25v-.375l-.25-.5-.125-.25-.5-.75-.125-.625-.25-.5-.625-1-.125-.75-.125-.375-.625-1-.375-1v-.375l-.125-.25-.375-.375-.375-.75-.125-.75-.875-1.5-.125-.625-.75-1.625-.5-1-.5-.625-.125-.625L444.5 59l-.25-.375-.625-.875-.5-.5-.375-.25-.25-.125-.5-.125Zm-2.75 23.5h.625l.25.125.5.5.25.5.125.5.125.25.25.25.125.25.125.25.125.375.125.75.125.25.125.25.25.25.125.25.125.5.25.5.5.625.125.25.125.25.375 1.375.5 1 .25.75.125.75.125.375.75 1.5.25 1 .125.25.375.5.125.25.125.375.125.75.25.5.5.875.125.375v.375l.125.375.25.5.375.5.125.25.125.75.125.375.75 1.375.25 1 .375.875.125.25.25.25.125.25.125.375v.875l-.5.5H427.5l-.375-.375v-.875l.125-.375.125-.25.25-.25.125-.25.125-.375v-.375l.125-.375.125-.375.125-.25.375-.5.125-.25.25-.625v-.375l.125-.25.375-.5.25-.5.125-.375v-.375l.25-.625.625-1.125v-.375L431 96l.125-.25.375-.5.125-.25.375-1.375.125-.25.25-.25.5-1.125v-.375l.25-.625.625-1.125.25-1.25.75-1.5.125-.625.25-.625.125-.25.25-.25.125-.25.375-1.375.75-1.375.125-.75.125-.25.625-.625.375-.25.25-.125ZM90.75 0l-.25.375L90 .5l-.625.125-.625.125-.875.125H86.5l-1.375.25H83.5l-1.25.125-1.125.125-2 .5-.75.125-2.125.125-.75.125-.625.125-.5.25-1.125.25L72.5 3h-.875l-.875.125-1.625.5-.625.125-1.25.125-.625.125-.5.125-1.25.5-.5.125-1.75.25-2 .5-1.375.5-1 .125-.625.125-1.375.625-.5.125-1 .125-1.125.375-.625.375-.5.125H52l-.5.125-.625.25-.625.375-.375.125-1.25.25-.5.25-.875.5-.75.125-.375.125L45 10.75l-1.375.375-1.375.75-1.375.375-.25.125-.5.375-.625.25-.75.125-.25.125-1.25.75-.625.125-.25.125-1 .625-.5.125-.25.125-.25.125-.5.375-.5.25-.5.125-.25.125-.25.125-.5.375-.5.25-.5.125-.25.125-.25.125-.375.375-.625.375-.5.125-.25.125-.625.5-.625.25-.625.375-.5.5L26 20h-.25l-.25.125-.75.625-.375.25-.625.25-.75.625-.5.125-.375.25-.875.75-.625.25-.625.625-.375.125-.625.5-1.125.875-.625.625-.5.25-.875.75-1.75 1.5-1.5 1.375-1.875 1.875-1 1.125-.875 1-.75.875-.25.5-.5.5-.375.5-.625.875-.25.375-.125.375-.25.375-.375.375-.25.375-.375.875-.5.625-1.125 2.125-.125.75-.25.625-.375.5-.125.25-.25.875-.375 1.25-.25.875-.25.875-.125.5-.125.625-.125 1.5L.625 53 .5 55l.125 21.375-.125 5.25v4.625l.125 2.625-.125 9.5L.625 102l.125 1.375.125 1.125.125.75.125.5.125.5.625 1.25.125.625.25.625.125.25.125.25.25.25.125.25.25.75.375.75.375.375.25.625 1.125 1.5 1 1h.25l.25-.125.25-.5.125-.875L7 108.625v-.875l.25-2v-2.125l.125-.25.125-.25.25-.375.375-.375.25-.125h.5l.375.125.375.25.375.25 1 1 .25.375.25.375.125.25.125.25.25.625.25.875.125.625.125 2.625v1.5l-.125 9.75.125.375.375.5.75.75 1.125.875.875.5.5.5.375.25.375.125.875.75.625.25.75.75h.625l.25-.125.125-.25v-2l-.125-8.75.125-.5.125-.25.125-.25.25-.375.25-.375.875-.875.25-.125.25-.125h1l.375.125.25.125.5.375.625.5 1 1 .625.75.25.5.375.75.375.875.125.75.125 1 .125 10-.125 1.5.125.5.125.25.5.5.5.375.25.125.25.125.875.375 1.25.625 1.875.875 1 .25.25.125.25.125.375.375.25.125.25.125h.75l.25-.125.125-.25v-2.625L37 128.5l.125-4.625.125-.375.25-.5.375-.75.375-.375.375-.25.625-.375.25-.125.5-.125h1.125l.5.125.5.25.5.375.5.125.25.125 1 .875.375.375.25.375.625 1 .125.25.125.25.125.375.125.375.125.625.125 1 .125 1.25.125 1.25v8.375l.125.25.5.5.375.25.625.25.375.125h.625l1.5.375 1 .375.5.125.5.125 1.75.375h.625l1.25.375.625.125h.25l.25-.125.25-.25.125-.25v-8.75L58 131l.125-.5.625-1.125L59 129l1-1 .375-.25.375-.125.875-.25h1.125l.625.125.875.25.75.375.375.25.625.5.875.875.875 1.5.125.25.125.375.125.625.125.875.125 3.5-.125 5v.375l.25.5.25.25.375.25.25.125.25.125.5.125.75.125 1.125.125 2.25.125h2.25l1.875.125 1.375.125.875.125.625.125.375.375H92l.5-.375.625-.125.625-.125 1-.125h2.375l2-.125 2-.125 1.125-.125 1-.125.75-.125.625-.25.75-.125h.875l.875-.125 1.25-.25 1.25-.375.625-.125.75-.125 1.5-.125.75-.125 1.875-.375 3.125-.75.5-.125.5-.125.75-.375.75-.25.625-.125H122l.5-.125.375-.125.375-.125.375-.25L124 139l.875-.125.5-.125.5-.25L127 138l.25-.125.25-.125.5-.375 1-1 .25-.375.375-.625.125-.25.125-.375.125-.5v-.5l.25-.875.375-.875.125-.5.125-.5.125-.75.125-1.75.125-1 .375-1.375.125-.75.125-1V123l.25-1.25v-1.625l-.125-.5-.125-.375-.25-.25v-.125l-.125-.125-.25-.125-.25-.125h-.5l-.25.125-.375.375-.375.5-.125.25-.125.25-.25.625V121l-.125.375-.75 1.375-.375 1.25-.125.25-.375.375-.125.25v.25l-.125.25-.25.375-.25.375-.625.875-.875 1-2 2-.5.375-.5.375-.375.25-.625.25-.375.375-.375.25-.25.125-.625.125-1.375.75-.5.125-1 .125-.875.25-.375.25-.625.125-.625.125-1.125.125h-1.25l-2.375.375h-4l-1.375-.125-2.375-.25-1.125-.125-.75-.125-1.375-.5-.5-.125-1-.125-.75-.25-.375-.125-.25-.25-.375-.125-.375-.125-.75-.125-.5-.25L92 131h-.375l-.75-.375-.5-.375-.25-.125-.5-.125-.25-.125-.375-.25-.375-.375-1.125-.5-.5-.5-.75-.375-.5-.375-1.125-.875-.875-.75-4.625-4.625-.5-.875-.625-.625-.25-.375-.125-.375-.5-.5-.25-.625-.25-.375-.375-.375-.25-.375-.125-.25-.125-.25V116l-.125-.25-.5-.625-.125-.25-.25-.625v-.375l-.125-.25-.375-.5-.375-.875-.125-.75-.625-1.25-.125-.5-.125-1-.25-.875-.25-.375-.125-.375-.125-.5L72 106l-.125-.75-.375-2.375-.125-1-.125-1.75V93.5l.125-1.375.25-1.125v-1.5l.25-1.875.125-.75.125-.625.125-.5.375-.875.25-.875.125-1.25.125-.375.25-.625.375-.625.25-1 .125-.25.125-.25.25-.25.125-.25.25-.875L75 78l.125-.25.5-.625.125-.625.125-.25.375-.625.5-.5.25-.625.25-.375.875-1.125.75-.875 1-1.125L81 69.875l1.125-1 .625-.5.5-.375.875-.5.5-.5.25-.125h.25l.25-.125.625-.5.625-.375.625-.125.25-.125 1.25-.75 1.375-.375.625-.375.375-.125.375-.125.625-.125 1.375-.125.5-.125.5-.25.5-.125.5-.125.875-.125 1.875-.125 2.75-.125h1.5l2.875.125 2 .125 1 .125.625.125.5.125.5.25.5.125 1.625.125.5.125.5.125L116 65l.25.125.5.375.5.25.625.125.375.125 1.25.875.5.125.25.125.5.5.375.125.375.25.875.75 2.25 2.25.375.5.25.625.375.375.25.375.25.625.125.625.375.625.125.375.125.375.125.625.125.75.125.875v1l.125 1.25.125.5.5 1 .25.25.25.125h1l.25-.125.25-.25.25-.375.375-.75.125-.75.125-4.25v-6l.125-2.75.125-1.625.25-1.5v-1.75L131 61l-.25-.375-.25-.25-.375-.25-.75-.125-.25-.125-.25-.125-.375-.375v-1l-.25-.25h-.5l-.25.25-.125.375-.125.25-.125.125-.25.125H126l-.625-.25-.875-.125h-.875l-.875-.125-2.625-.625-.875-.125-1-.125-2.125-.125-1-.125-1.875-.375-1.25-.125-2.25-.125-4.625-.125h-1L98.75 57l-1.5.125-1 .125-.75.125-1.5.375-.875.125h-.875l-.875.125-.75.125-.5.125-1 .375-1.125.25h-.625l-.5.125-.5.125-.375.125-.875.5-1.125.375h-.375l-.375.125-.375.125-.625.375-.375.125L81.5 61l-.875.125-.625.25-.875.5L78.5 62l-.75.375-.625.5L76.5 63l-.25.125-.25.125-.375.25-.375.375-.625.25-1 .625-.375.25-.5.375-.5.5-.875.5-.5.5L70.5 67l-.625.5-.75.625-1 .875-.875.875-1.375 1.5-1 1.125-.5.625-.875 1.125-.375.5-.75 1.125L62 76.5v.25l-.125.25-.25.375-.375.375-.25.5-.75 1.375-.125.25-.125.25-.125.625L59 82.375l-.125.75-.125.375-.625 1.25-.125.5-.125 1-.625 1.5-.125.625-.125.875V90l-.125.875-.125.5-.5.5h-1.375l-.625-.375-1.5-.5-.875-.125-.375-.125-.875-.5-.375-.125-.375-.125-1-.125-.375-.125-.625-.375-.375-.125-.375-.125-1.25-.25-.875-.5-.625-.25-1.625-.5-.625-.375-1.25-.25-.5-.25L39 86h-.375L38 85.75l-.25-.125-.5-.375-.5-.25-.5-.125-1-.625-.25-.125-.625-.125-.75-.375-.625-.5-1.25-.5-.375-.375-.25-.125-.5-.125-.5-.25-.75-.625-.25-.125-.5-.125-.5-.5-.375-.25-.375-.125-.375-.25-.375-.375-.375-.25-.625-.25-1-.75-.625-.25-1.375-1-.875-.75L21 75.5l-1.125-1-1.375-1.25-2.75-2.75-.75-.875-.375-.625-.625-.625-.5-.875-.5-.5-.25-.625-.75-1-.125-.25-.125-.5-.25-.5-.25-.25-.375-.75-.25-.875-.5-.875L10 61l-.125-.5-.125-1.125-.375-1-.125-.625-.125-.625L9 55.75v-1l.125-2.625.125-.625.125-.625.25-.5.125-.625.125-1.375.125-.625.25-.625.375-.75.125-.75L11 45l.5-.625.125-.25.125-.25L12 43l.125-.25.5-.625.375-.875.75-.875.125-.375.25-.375.75-.75.25-.5.625-.75.5-.625.75-.875 1.375-1.375 1.125-1 1-.875.5-.25.75-.75.5-.25.75-.75.25-.125h.875l.25.125 1.125 1 1.875 1.75.625.625v.625l-.125.25-.625.625-.5.25-.625.625L25.5 37l-1.125 1-2.5 2.5-.875 1-.75.875-.25.5-.75.75L19 44l-.125.375-.375.375-.375.625-.25.625-.625.75-.125.25-.375 1.25-.375.5-.125.25-.25.625-.125.75-.5 1-.125.375-.125.625-.125 1L14.875 55v2.875L15 59.25l.125.75.125.5.125.5.125.375.25.375.125.75.25.75 1 2.125.25.375.625 1 .25.375.625.625.25.5.875 1.125.75.875 1 1.125.625.625 1 .875h.5v-.5L23.75 72l-.5-.5-.125-.25-.5-1.375-.125-.25-.25-.25-.125-.25-.125-.25-.125-.375-.125-.375v-.375l-.125-.375-.5-1L21 66l-.125-.625-.125-.875-.125-1.125-.125-1.625V59.5l.125-1.125.125-1 .125-.875L21 56l.125-.375.625-1.375.125-.875L22 53l.625-1.125.25-.75.125-.375.5-.5.25-.375.375-.75.625-.75.125-.375.25-.375.5-.5.5-.875.875-1.125.625-.625.25-.375.125-.375.375-.5.5-.5.875-.75.75-.375.375-.375.375-.25.375-.125.375-.25.625-.625.375-.25.25-.125H34l.25.125.25.125 1 1 1.625 1.25L38 43l.125.25v.375l-.125.25-.75.75-.625.375-1 .875-1.125 1-1.5 1.5-.875 1-.375.625-.75.75-.75.875-.25.625-.75 1-.75 1.375-.5 1-.125.625-.75 1.375L27 58l-.125.5-.125 1.25-.125.625-.375 1-.125.625v3.25l.125 1 .5 1.375.125 1.125.125.5.125.375.125.375.125.25.25.25.125.25.125.625.375.75.375.375.375.875.25.375.25.375.375.375.375.75.75.75 1 1.375 1.375 1.375 1 .875.375.125.25-.25-.125-.5-.125-.25-.75-.875-.875-1.375-.125-.25-.125-.25-.25-.625-.375-1-.375-1.125-.125-.625-.125-.625-.125-.75-.25-1.625-.125-1.25v-.625l.125-.125v-.75l.25-.625.125-.75.125-.75v-.875l.125-.75L32 62.5l.125-.375.125-.375.375-.75.25-1.125.25-.625L34 57.5l.25-.375.5-.625.75-.75 1.125-1.375.375-.625.875-1 2-2 1-.875.875-.75.625-.375.125-.125L43 48l.25-.125h.5l1 1 1 .75 1 1 .5.25.625.625.125.25v.625l-.75.75h-.125l-2 1.75L44 56l-1.5 1.625-.625.75-.5.625-.375.5-.25.5-.5.5-.25.375-.125.375-.375.375-.375.625-.125.25-.125.625-.625 1.125-.25.625-.125.5-.125 1-.25.5-.125.625-.125.875v3.375l.125.875.5 2.625.125.375.125.375.125.25.375.5.625 1.5.5.5.25.625.25.375.75.75.125.375.125.125.25.125.375-.125v-.75l-.125-.5-.125-.375-.25-.375-.125-.375-.125-.375-.125-.875v-4l.125-.625.25-.875.375-.875v-.5l.125-.5.125-.375.125-.375.625-1.125v-.375l.25-.625.125-.25.5-.625.125-.25.125-.5.25-.5.25-.375.375-.375.125-.375.25-.375.625-.75.875-1 1-1.125 1.75-1.75h.125L51.375 57l1-.875h.75l.25.125.75.625L56 58.625l.5.25.375.375V60l-.25.375-.375.375-.625.25-.75.625-1.375 1.25-1.5 1.5-.875 1-.375.625-.625.625-.25.625-.5.625L49 68.5l-.125.625-.125.25-.75 1.25-.125.75-.125.375-.5 1-.125.5-.125.625v4.25l.125.625.125.5.375 1 .125.25.125.25.375.375h.25l.375-.375.25-.375.625-1 .375-.75.625-1.25.125-.375.25-1.25.75-1.875.125-.25.125-.25L53 71.75l.25-.375.375-.375.25-.625.25-.375.5-.5.375-.75 1.875-1.875 3.25-3.125L61 63l1.375-1 .625-.25.375-.25.375-.375.75-.375.75-.625.375-.25.5-.125.25-.125.375-.25.375-.375 1.125-.5.375-.375.5-.25 1.75-.875 1-.25.375-.125.5-.375.625-.25.375-.125h.375l.375-.125 1.375-.75.75-.125.375-.125.625-.375 1-.375.375-.125.875-.125.375-.125 1.5-.75 1.25-.25.75-.375.375-.125.5-.125.75-.125H86l.75-.125 2-.625.75-.125.875-.125h1l.75-.125.5-.125 1-.375.75-.125 1.25-.125L98 49.875l1.25-.125 1.125-.25 1.125-.125h10l1.25.25H114l1.25.125 1.125.125L117.5 50l1 .125.875.125 1 .375.5.125.625.125h.75L123 51l.5.125.5.125.875.375.5.125 1.25.125.625.125.625.375.375.125h.25l.25-.125.125-.125v-.125l.25-.25.375-.625.125-.375.375-1.125.125-.5v-.75l-.125-.25-.125-.125-.25-.125-.5-.25h-.375l-1.125-.625-.375-.125-1.375-.125-2.125-.625-.625-.125-.875-.125h-.875l-.75-.125-.75-.125-2-.5-1.125-.125-1.625-.125-2-.125-1.875-.125h-7.125l-1.875.25-2.25.125h-2.5l-1.125.125-.75.125-1.375.375-.75.125-.875.125H91.5l-.875.125-.75.125-1.625.5-.625.125L86.25 47l-.625.125L84 47.75l-.625.125L82.25 48l-.625.125-.75.25-.75.375-.5.125-.875.125-.875.25-1.25.625-.375.125h-.5l-.875.25-.875.5-.625.25H73l-.375.125L71 52h-.375l-.75.375-.25.25-.25.125-.25.125L68.5 53l-1.25.75-.25.125-.875.25-.25.125-.625.5-.25.125-.5.125-.25.125-.375.25-.375.375-.375.25-.375.125h-.5L62 56l-.25-.125-2.125-2-1-1-.125-.25v-.375l.375-.375.375-.25.375-.25.625-.375.25-.125.5-.125.75-.625.375-.125.5-.25.625-.125 1-.625.625-.125 1.875-1h.375l.625-.25L68.875 47l.375-.125.375-.125h.5l.875-.5.625-.25 1.25-.25L74 45.125l.875-.25h.5l.375-.125.375-.125.375-.25.375-.125h.375l.375-.25h.5l.875-.25 2.125-.75 1.5-.375h.625l.5-.25h.5l.375-.25.625-.125.5-.125.75-.125h1l.875-.125.75-.125.625-.25.625-.125.75-.125.875-.125 2-.125.875-.125 1.5-.375 1-.125L98.5 40l2-.125 2.875-.125H110l3.5.125 1.75.125 1.25.125.875.125.875.125.875.25.875.125 1 .125h1.125l1 .125.75.125.625.125.5.25h.375l.25-.125.25-.25.125-.375V36.5l-.375-.375-.25-.125h-1.125l-1-.125-.875-.25h-.875l-1.625-.375-1.125-.125L117.5 35h-1.875l-1.875-.25-2.25-.125-4.125-.125H105l-2.5.125-2.5.125-1.625.25h-1.75l-1.375.125-.875.125-.75.125-.75.25-.75.125-.875.125L89 36l-.75.125-.75.125-1 .375-.75.125-.75.125h-.75L83.5 37l-.5.125-.5.125-1.375.5-3 .625-.5.125-.375.25-.875.25-.5.125-.5.125h-.625l-.375.125-1 .5L73 40l-.875.125-.5.125-1.25.625L69.5 41l-.375.125-.375.125-.25.125-.25.25-.25.125h-.375l-.375.25h-.375l-.375.125-1.375.75-.75.125-.625.25-.625.5-.25.125-1 .25-.25.125-.625.5-.25.125-1 .25-.25.125-1.25.75-.625.125-.625.5-.5.25L56 47l-.25.125-.25.125-.5.5-.75.375-.375.125h-.5l-.25-.125-1.25-1.25-1.125-1-1-.75-.5-.5v-.5l.75-.75.5-.375.25-.125H51l.25-.125.75-.625 1.125-.5.625-.5L54 41l.25-.125h.25l.75-.375.375-.375.25-.125.625-.125.5-.25.5-.375.25-.125.375-.125.375-.125h.375l.375-.125.25-.125.5-.375.5-.25.625-.125.5-.25 1-.625.375-.125 1-.25.25-.125.5-.375.375-.125.375-.125 1.375-.25.375-.125.625-.375.375-.125.375-.125h.5l.375-.125.375-.125 1-.5.5-.125 1-.125 1.25-.5.875-.25L75 33l1.125-.125.5-.125 1-.375h.5L79 32l.5-.125.5-.125.75-.125h.75l.625-.125 1-.375 1-.25.875-.125h1l.75-.125.625-.125 1.125-.375.625-.125 1-.125 2.375-.125.875-.125 1.75-.375 1.125-.125L98 29l5.5-.125h1.5l7.75.125 2.375.125 1.125.125.875.25h.375l.5-.125.25-.125.125-.125.125-.25.125-.25.125-3.375v-.625l-.125-.25-.375-.375-.25-.125-.5-.125-.5-.125h-1.75l-1.5-.25-3.375-.125-4.625-.125h-1.125l-3.875.125-3.125.125-1.125.25-2.625.125-1.25.25h-1.25L90 24.125l-.875.125-.75.125-1.25.375-.75.125h-1l-1 .125-.75.125-1.375.5-.75.125-.875.125h-.875L79 26l-.625.125-.5.125-.5.25-1.625.25-.5.125-.5.125-1.625.625-.875.25-.5.125-.5.125h-.625l-.5.125-.5.125-.625.375-.375.125-.375.125-1 .125-.5.125-.375.125-.625.375-.375.125-.5.125h-.5l-.375.125-.375.125-.5.375L62 31h-.5l-.375.125-.25.125-.25.125-.25.25-.25.125-1.375.375-1.625.875h-.375l-.5.25-1.375.75-1.25.375-.5.375-.25.125-.875.25-.25.125-.625.5-1.125.375-.375.25-.25.25-.375.25-.5.125-.5.25-.375.375-.375.25L47 38h-.25l-.25.125-1 .75-.5.25-.75.375h-.625l-.25-.125-.25-.125-.875-.75-.75-.625-1.375-1.25-.25-.25-.25-.375-.125-.25v-.375l.5-.5.875-.375.625-.5.25-.125H42l.25-.125.625-.5 1.375-.625.375-.375 1.25-.5.25-.125.625-.5.5-.25.5-.125.25-.125.25-.125.375-.375.25-.125.25-.125.5-.125.25-.125.5-.375.25-.125L51 29l.75-.125.375-.125.25-.125.25-.25.25-.125.625-.25 1.375-.375.875-.5.375-.125.375-.125h.375l.375-.125.625-.25L59 25.875l.75-.125.375-.125.875-.5.375-.125.375-.125h.5l.875-.25.375-.125 1-.5 1-.125.5-.125.375-.125.375-.25.375-.125.375-.125L68 23l1-.125.5-.125 1.25-.5 1.125-.25L73 21.875l1-.25 1.5-.5 1.125-.25.75-.125 1.375-.125.75-.125.5-.125.5-.25.625-.125.625-.125.875-.125h.875l.875-.125.75-.125.625-.25.75-.125.875-.125 1.125-.125h1.875L92 18.75l3.125-.5 1.125-.125L98.375 18l4.125-.125h7.125l.25-.125.25-.25.125-.25v-4l-.125-.75-.5-.5-.375-.125-1-.125h-4.375l-3.375.125-3.375.125-3.25.125-1.375.125-1.5.125-1.625.375-.875.125-1 .125h-1.375l-1.25.125-.875.125-.75.125-1.375.375-.75.125-.875.125h-1.125l-.75.125-.625.125-1 .375-.5.125-1.375.125-.625.125-.5.125-1.375.5-2.5.375-.5.125-.5.125-.875.375-1.5.375-1.125.25h-.625l-.375.125L64 17.5l-.75.375-.75.25H62l-.5.125-.375.125-1 .5-.5.125h-.375l-.5.125-1.5.75-.875.125-.625.25-.5.375-.375.125-.375.125-.75.125-1.75.875-1.25.25-.625.25-.875.5-.625.125-.625.25-.25.125-.5.375-.25.125-1 .25-.375.125-.375.375-.25.125-.25.125-.875.25-.625.5-.25.125-.25.125-.875.25-.625.5-1.625.75-.375.375-.25.125-.25.125h-.25l-.25.125-1 .75L37 29h-.25l-.25.125-1 .75-1 .5h-1l-.375-.25-1-1-.625-.375-1-.875-.875-.875-.125-.25v-.375l.125-.25.125-.125h.125l.25-.25.375-.125.375-.375.375-.25.875-.375.375-.375.375-.25 1-.375.625-.5.25-.125.25-.125.5-.125.5-.25.25-.25.5-.25.5-.125.25-.125.875-.625.25-.125.25-.125.5-.125.5-.25.5-.375.25-.125.25-.125.875-.25.25-.125.25-.25.25-.125.25-.125 1-.25.375-.125.5-.375.25-.125 1.375-.375 1.375-.75.875-.125.375-.125.375-.125L50.5 16l1.375-.375.375-.125.5-.375L53 15l.375-.125.875-.125.375-.125L55 14.5l.625-.375L56 14l.375-.125 1-.125 1-.5.375-.125.375-.125.5-.125h.625l.5-.125 1-.5.875-.25h.625l.875-.25 1.25-.5.5-.125 1.25-.25 1.125-.125 1.75-.375.875-.375.5-.125.5-.125 1.25-.125 2-.625.75-.125 1-.125H78l.875-.125.625-.125 1.25-.375L81.5 8l1.25-.125h1.375l1-.125.875-.125.75-.25.75-.125 1.125-.125L90 7l2.875-.125h2.75l2.75-.125 1.75-.125.25-.125.375-.375.125-.375V0ZM40.5 97.625h.75l.5.125.375.125.25.125 1.5 1L45 100.125l.25.375.5.875.125.25.125.25.125.375.125.5.125.625.125.75.125 2.25.125 5.75v.25l-.125.125v.375l-.125.25-.125.125-.25.125h-.75l-1-.5h-.5l-.5-.125-.625-.25-.625-.375-.5-.125-1-.125-.375-.125-.375-.125-.625-.375-.625-.125-.75-.375-.375-.375-.125-.25-.125-.25-.125-.375v-2.25l.125-5.75.125-.75.25-.875.125-.375 1.125-1.125.5-.375.25-.125.375-.125ZM22.75 89.25h.625l.375.125 1 .5.375.25.75.75.625.75.25.375.375.75.5 1.125.125.5.125 1.125L28 98v5l-.125.75-.125.25-.125.25-.125.125-.25.125-.625-.125-.5.125-.375.25h-1l-1-.5-.375-.25-.875-.625L22 103l-1-.875-.625-.625-.25-.375-.125-.375V93.5l.125-1.125.125-.5.125-.375.25-.25.125-.5.125-.25.625-.625.375-.25.25-.125.25-.125ZM8.5 79.125l.375.125.25.125.25.125.375.25.375.25.75.75.25.375.25.375.375.75.125.375.125.5.125.5.125.75.125 1 .125 2.5v2.5l-.125.5-.125.375-.375.75-.25.375-.875.875-.375.25h-.75l-.25-.125-.25-.125L8.75 93l-.375-.25-.625-.625-.625-.75-.125-1V83l.125-1.375.125-1.125.375-.75.5-.5Z"/></svg>